<!-- Copyright (c) 2024 Tobias Briones. All rights reserved. -->
<!-- SPDX-License-Identifier: CC-BY-4.0 -->
<!-- This file is part of https://github.com/tobiasbriones/blog -->

<svg version="1.2" xmlns="http://www.w3.org/2000/svg" viewBox="0 0 1920 1440" width="1920" height="1440"><style>tspan{white-space:pre}.a{fill:#fff}.b{fill:#f00}.c{fill:#0f0}.d{fill:#00f}.e{font-size: 64px;fill: #212121;font-weight: 900;font-family: "Poppins-Black", "Poppins"}.f{font-size: 64px;fill: #ff0000;font-weight: 900;font-family: "Poppins-Black", "Poppins"}.g{font-size: 64px;fill: #00ff00;font-weight: 900;font-family: "Poppins-Black", "Poppins"}.h{font-size: 64px;fill: #0000ff;font-weight: 900;font-family: "Poppins-Black", "Poppins"}.i{font-size: 64px;fill: #000000;font-weight: 900;font-family: "Poppins-Black", "Poppins"}.j{fill:#212121}.k{font-size: 64px;fill: #263238;font-weight: 900;font-family: "Poppins-Black", "Poppins"}.l{font-size: 64px;fill: #2196f3;font-weight: 900;font-family: "Poppins-Black", "Poppins"}.m{font-size: 64px;fill: #9e9e9e;font-weight: 900;font-family: "Poppins-Black", "Poppins"}.n{font-size: 64px;fill: #00bcd4;font-weight: 900;font-family: "Poppins-Black", "Poppins"}.o{font-size: 64px;fill: #607d8b;font-weight: 900;font-family: "Poppins-Black", "Poppins"}.p{font-size: 40px;fill: #000000;font-weight: 500;font-family: "Poppins-Medium", "Poppins"}.q{font-size: 64px;fill: #000000;font-weight: 700;font-family: "Poppins-Bold", "Poppins"}.r{font-size: 64px;fill: #000000;font-weight: 300;font-family: "Poppins-Light", "Poppins"}</style><path class="a" d="m0 0h1920v1440h-1920z"/><path fill-rule="evenodd" class="b" d="m240 540c0-132.7 107.3-240 240-240v240l-207.9 120.1c-20.4-35.3-32.1-76.3-32.1-120.1z"/><path fill-rule="evenodd" class="c" d="m480 780c-89 0-166.5-48.2-207.9-119.9l207.9-120.1 207.9 120.1c-41.4 71.7-118.9 119.9-207.9 119.9z"/><path fill-rule="evenodd" class="d" d="m720 540c0 43.8-11.7 84.8-32.1 120.1l-207.9-120.1v-240c132.7 0 240 107.3 240 240z"/><text style="transform:matrix(1,0,0,1,304,185)" ><tspan x="0" y="0" class="e">S</tspan><tspan  y="0" class="e"> </tspan><tspan  y="0" class="e">=</tspan><tspan  y="0" class="e"> </tspan><tspan  y="0" class="f">R</tspan><tspan  y="0" class="e"> </tspan><tspan  y="0" class="e">+</tspan><tspan  y="0" class="e"> </tspan><tspan  y="0" class="g">G</tspan><tspan  y="0" class="e"> </tspan><tspan  y="0" class="e">+</tspan><tspan  y="0" class="e"> </tspan><tspan  y="0" class="h">B
</tspan></text><text style="transform:matrix(1,0,0,1,217,938.719)" ><tspan x="0" y="0" class="f">R</tspan><tspan  y="0" class="i">,</tspan><tspan  y="0" class="i"> </tspan><tspan  y="0" class="g">G</tspan><tspan  y="0" class="i">,</tspan><tspan  y="0" class="i"> </tspan><tspan  y="0" class="h">B</tspan><tspan  y="0" class="i"> </tspan><tspan  y="0" class="i">=</tspan><tspan  y="0" class="i"> </tspan><tspan  y="0" class="i">[</tspan><tspan  y="0" class="i">0</tspan><tspan  y="0" class="i">,</tspan><tspan  y="0" class="i"> </tspan><tspan  y="0" class="i">2</tspan><tspan  y="0" class="i">5</tspan><tspan  y="0" class="i">5</tspan><tspan  y="0" class="i">]
</tspan></text><text style="transform:matrix(1,0,0,1,1274,937.625)" ><tspan x="0" y="0" class="e">c</tspan><tspan  y="0" class="e">o</tspan><tspan  y="0" class="e">l</tspan><tspan  y="0" class="e">o</tspan><tspan  y="0" class="e">r</tspan><tspan  y="0" class="e"> </tspan><tspan  y="0" class="e">=</tspan><tspan  y="0" class="e"> </tspan><tspan  y="0" class="e">(</tspan><tspan  y="0" class="f">r</tspan><tspan  y="0" class="e">,</tspan><tspan  y="0" class="e"> </tspan><tspan  y="0" class="g">g</tspan><tspan  y="0" class="e">,</tspan><tspan  y="0" class="e"> </tspan><tspan  y="0" class="h">b</tspan><tspan  y="0" class="e">)</tspan><tspan  y="0" class="e">
</tspan></text><path class="c" d="m1134 911.6c0-8.8 7.2-16 16-16h84c8.8 0 16 7.2 16 16v12c0 8.9-7.2 16-16 16h-84c-8.8 0-16-7.1-16-16z"/><path class="b" d="m1134 911.6c0-8.8 7.2-16 16-16h7c8.8 0 16 7.2 16 16v12c0 8.9-7.2 16-16 16h-7c-8.8 0-16-7.1-16-16zm19-16h20v44h-20z"/><path class="d" d="m1251 923.6c0 8.9-7.2 16-16 16h-7c-8.8 0-16-7.1-16-16v-12c0-8.8 7.2-16 16-16h7c8.8 0 16 7.2 16 16zm-19 16h-20v-44h20z"/><path class="j" d="m1440 780c-132.7 0-240-107.3-240-240 0-132.7 107.3-240 240-240 132.7 0 240 107.3 240 240 0 132.7-107.3 240-240 240z"/><text style="transform:matrix(1,0,0,1,1194,184.8)" ><tspan x="0" y="0" class="k">C</tspan><tspan  y="0" class="l">o</tspan><tspan  y="0" class="m">l</tspan><tspan  y="0" class="n">o</tspan><tspan  y="0" class="o">r</tspan><tspan  y="0" class="i"> </tspan><tspan  y="0" class="i">=</tspan><tspan  y="0" class="i"> </tspan><tspan  y="0" class="f">R</tspan><tspan  y="0" class="f"> </tspan><tspan  y="0" class="e">*</tspan><tspan  y="0" class="i"> </tspan><tspan  y="0" class="g">G</tspan><tspan  y="0" class="g"> </tspan><tspan  y="0" class="e">*</tspan><tspan  y="0" class="i"> </tspan><tspan  y="0" class="h">B</tspan><tspan  y="0" class="h">
</tspan></text><path class="c" d="m1276.8 419.5c0-8.8 7.1-16 16-16h55c8.8 0 16 7.2 16 16v1c0 8.8-7.2 16-16 16h-55c-8.9 0-16-7.2-16-16z"/><path class="b" d="m1276.8 418.1c0-8.1 6.5-14.6 14.6-14.6 8.1 0 14.6 6.5 14.6 14.6v3.8c0 8.1-6.5 14.6-14.6 14.6-8.1 0-14.6-6.5-14.6-14.6zm14.2-14.6h15v33h-15z"/><path class="d" d="m1364.5 421.9c0 8.1-6.5 14.6-14.6 14.6-8.1 0-14.6-6.5-14.6-14.6v-3.8c0-8.1 6.5-14.6 14.6-14.6 8.1 0 14.6 6.5 14.6 14.6zm-14.2 14.7h-15v-33h15z"/><path class="c" d="m1396 419c0-8.8 7.2-16 16-16h55c8.8 0 16 7.2 16 16v1c0 8.8-7.2 16-16 16h-55c-8.8 0-16-7.2-16-16z"/><path class="b" d="m1396 417.6c0-8.1 6.5-14.6 14.6-14.6 8.1 0 14.7 6.5 14.7 14.6v3.8c0 8.1-6.6 14.6-14.7 14.6-8.1 0-14.6-6.5-14.6-14.6zm14.3-14.6h14.9v33h-15z"/><path class="d" d="m1483.7 421.4c0 8.1-6.5 14.6-14.6 14.6-8.1 0-14.6-6.5-14.6-14.6v-3.8c0-8.1 6.5-14.6 14.6-14.6 8.1 0 14.6 6.5 14.6 14.6zm-14.2 14.6h-15v-33h15z"/><path class="c" d="m1516 419c0-8.8 7.2-16 16-16h55c8.8 0 16 7.2 16 16v1c0 8.8-7.2 16-16 16h-55c-8.8 0-16-7.2-16-16z"/><path class="b" d="m1516 417.6c0-8.1 6.5-14.6 14.6-14.6 8.1 0 14.7 6.5 14.7 14.6v3.8c0 8.1-6.6 14.6-14.7 14.6-8.1 0-14.6-6.5-14.6-14.6zm14.3-14.6h15v33h-15z"/><path class="d" d="m1603.7 421.4c0 8.1-6.5 14.6-14.6 14.6-8.1 0-14.6-6.5-14.6-14.6v-3.8c0-8.1 6.5-14.6 14.6-14.6 8.1 0 14.6 6.5 14.6 14.6zm-14.2 14.6h-15v-33h15z"/><path class="c" d="m1277 539.5c0-8.8 7.2-16 16-16h55c8.8 0 16 7.2 16 16v1c0 8.8-7.2 16-16 16h-55c-8.8 0-16-7.2-16-16z"/><path class="b" d="m1277 538.1c0-8.1 6.5-14.6 14.6-14.6 8.1 0 14.7 6.5 14.7 14.6v3.8c0 8.1-6.6 14.6-14.7 14.6-8.1 0-14.6-6.5-14.6-14.6zm14.3-14.6h14.9v33h-15z"/><path class="d" d="m1364.7 541.9c0 8.1-6.5 14.6-14.6 14.6-8.1 0-14.6-6.5-14.6-14.6v-3.8c0-8.1 6.5-14.6 14.6-14.6 8.1 0 14.6 6.5 14.6 14.6zm-14.2 14.7h-15v-33h15z"/><path class="c" d="m1396.2 539c0-8.8 7.2-16 16-16h55c8.9 0 16 7.2 16 16v1c0 8.8-7.1 16-16 16h-55c-8.8 0-16-7.2-16-16z"/><path class="b" d="m1396.2 537.6c0-8.1 6.6-14.6 14.7-14.6 8.1 0 14.6 6.5 14.6 14.6v3.8c0 8.1-6.5 14.6-14.6 14.6-8.1 0-14.7-6.5-14.7-14.6zm14.3-14.6h15v33h-15z"/><path class="d" d="m1484 541.4c0 8.1-6.5 14.6-14.6 14.6-8.1 0-14.7-6.5-14.7-14.6v-3.8c0-8.1 6.6-14.6 14.7-14.6 8.1 0 14.6 6.5 14.6 14.6zm-14.3 14.6h-15v-33h15z"/><path class="c" d="m1516.2 539c0-8.8 7.2-16 16-16h55c8.9 0 16 7.2 16 16v1c0 8.8-7.1 16-16 16h-55c-8.8 0-16-7.2-16-16z"/><path class="b" d="m1516.2 537.6c0-8.1 6.6-14.6 14.7-14.6 8.1 0 14.6 6.5 14.6 14.6v3.8c0 8.1-6.5 14.6-14.6 14.6-8.1 0-14.7-6.5-14.7-14.6zm14.3-14.6h15v33h-15z"/><path class="d" d="m1604 541.4c0 8.1-6.5 14.6-14.6 14.6-8.1 0-14.7-6.5-14.7-14.6v-3.8c0-8.1 6.6-14.6 14.7-14.6 8.1 0 14.6 6.5 14.6 14.6zm-14.3 14.6h-15v-33h15z"/><path class="c" d="m1277 659.5c0-8.8 7.2-16 16-16h55c8.8 0 16 7.2 16 16v1c0 8.8-7.2 16-16 16h-55c-8.8 0-16-7.2-16-16z"/><path class="b" d="m1277 658.1c0-8.1 6.5-14.6 14.6-14.6 8.1 0 14.7 6.5 14.7 14.6v3.8c0 8.1-6.6 14.6-14.7 14.6-8.1 0-14.6-6.5-14.6-14.6zm14.3-14.6h14.9v33h-15z"/><path class="d" d="m1364.7 661.9c0 8.1-6.5 14.6-14.6 14.6-8.1 0-14.6-6.5-14.6-14.6v-3.8c0-8.1 6.5-14.6 14.6-14.6 8.1 0 14.6 6.5 14.6 14.6zm-14.2 14.7h-15v-33h15z"/><path class="c" d="m1396.2 659c0-8.8 7.2-16 16-16h55c8.9 0 16 7.2 16 16v1c0 8.8-7.1 16-16 16h-55c-8.8 0-16-7.2-16-16z"/><path class="b" d="m1396.2 657.6c0-8.1 6.6-14.6 14.7-14.6 8.1 0 14.6 6.5 14.6 14.6v3.8c0 8.1-6.5 14.6-14.6 14.6-8.1 0-14.7-6.5-14.7-14.6zm14.3-14.6h15v33h-15z"/><path class="d" d="m1484 661.4c0 8.1-6.5 14.6-14.6 14.6-8.1 0-14.7-6.5-14.7-14.6v-3.8c0-8.1 6.6-14.6 14.7-14.6 8.1 0 14.6 6.5 14.6 14.6zm-14.3 14.6h-15v-33h15z"/><path class="c" d="m1516.2 659c0-8.8 7.2-16 16-16h55c8.9 0 16 7.2 16 16v1c0 8.8-7.1 16-16 16h-55c-8.8 0-16-7.2-16-16z"/><path class="b" d="m1516.2 657.6c0-8.1 6.6-14.6 14.7-14.6 8.1 0 14.6 6.5 14.6 14.6v3.8c0 8.1-6.5 14.6-14.6 14.6-8.1 0-14.7-6.5-14.7-14.6zm14.3-14.6h15v33h-15z"/><path class="d" d="m1604 661.4c0 8.1-6.5 14.6-14.6 14.6-8.1 0-14.7-6.5-14.7-14.6v-3.8c0-8.1 6.6-14.6 14.7-14.6 8.1 0 14.6 6.5 14.6 14.6zm-14.3 14.6h-15v-33h15z"/><text style="transform:matrix(1,0,0,1,722,1398.8)" ><tspan x="0" y="0" class="p">m</tspan><tspan  y="0" class="p">a</tspan><tspan  y="0" class="p">t</tspan><tspan  y="0" class="p">h</tspan><tspan  y="0" class="p">s</tspan><tspan  y="0" class="p">o</tspan><tspan  y="0" class="p">f</tspan><tspan  y="0" class="p">t</tspan><tspan  y="0" class="p">w</tspan><tspan  y="0" class="p">a</tspan><tspan  y="0" class="p">r</tspan><tspan  y="0" class="p">e</tspan><tspan  y="0" class="p">.</tspan><tspan  y="0" class="p">e</tspan><tspan  y="0" class="p">n</tspan><tspan  y="0" class="p">g</tspan><tspan  y="0" class="p">i</tspan><tspan  y="0" class="p">n</tspan><tspan  y="0" class="p">e</tspan><tspan  y="0" class="p">e</tspan><tspan  y="0" class="p">r</tspan><tspan  y="0" class="p">
</tspan></text><text style="transform:matrix(1,0,0,1,915,1340.8)" ><tspan x="0" y="0" class="p">B</tspan><tspan  y="0" class="p">l</tspan><tspan  y="0" class="p">o</tspan><tspan  y="0" class="p">g</tspan><tspan  y="0" class="p">
</tspan></text><text style="transform:matrix(1,0,0,1,640,1278.691)" ><tspan x="0" y="0" class="q">P</tspan><tspan  y="0" class="q">i</tspan><tspan  y="0" class="q"> </tspan><tspan  y="0" class="q">D</tspan><tspan  y="0" class="q">a</tspan><tspan  y="0" class="q">y</tspan><tspan  y="0" class="q"> </tspan><tspan  y="0" class="q">(</tspan><tspan  y="0" class="q">2</tspan><tspan  y="0" class="q">0</tspan><tspan  y="0" class="q">2</tspan><tspan  y="0" class="q">4</tspan><tspan  y="0" class="q">/</tspan><tspan  y="0" class="q">0</tspan><tspan  y="0" class="q">3</tspan><tspan  y="0" class="q">/</tspan><tspan  y="0" class="q">1</tspan><tspan  y="0" class="q">4</tspan><tspan  y="0" class="q">)
</tspan></text><text style="transform:matrix(1,0,0,1,584,1127.953)" ><tspan x="0" y="0" class="r">S</tspan><tspan  y="0" class="r">u</tspan><tspan  y="0" class="r">m</tspan><tspan  y="0" class="r"> </tspan><tspan  y="0" class="r">a</tspan><tspan  y="0" class="r">n</tspan><tspan  y="0" class="r">d</tspan><tspan  y="0" class="r"> </tspan><tspan  y="0" class="r">P</tspan><tspan  y="0" class="r">r</tspan><tspan  y="0" class="r">o</tspan><tspan  y="0" class="r">d</tspan><tspan  y="0" class="r">u</tspan><tspan  y="0" class="r">c</tspan><tspan  y="0" class="r">t</tspan><tspan  y="0" class="r"> </tspan><tspan  y="0" class="r">T</tspan><tspan  y="0" class="r">y</tspan><tspan  y="0" class="r">p</tspan><tspan  y="0" class="r">e</tspan><tspan  y="0" class="r">s
</tspan></text></svg>