<svg version="1.2" xmlns="http://www.w3.org/2000/svg" viewBox="0 0 700 500" width="700" height="500"><style>.a{fill:#fff}.b{fill:#2196f3}.c{fill:#8fbc8f}.d{fill:#607d8b}</style><path class="a" d="m0 0h700v500h-700z"/><path class="b" d="m262 224c-6.6 0-12-5.4-12-12 0-6.6 5.4-12 12-12 6.6 0 12 5.4 12 12 0 6.6-5.4 12-12 12z"/><path class="b" d="m438 224c-6.6 0-12-5.4-12-12 0-6.6 5.4-12 12-12 6.6 0 12 5.4 12 12 0 6.6-5.4 12-12 12z"/><path class="b" d="m438 300c-6.6 0-12-5.4-12-12 0-6.6 5.4-12 12-12 6.6 0 12 5.4 12 12 0 6.6-5.4 12-12 12z"/><path class="b" d="m262 300c-6.6 0-12-5.4-12-12 0-6.6 5.4-12 12-12 6.6 0 12 5.4 12 12 0 6.6-5.4 12-12 12z"/><path class="c" d="m262 212h176v76h-176z"/><path class="d" d="m262 200h176v12h-176z"/><path class="d" d="m262 288h176v12h-176z"/><path class="d" d="m262 212v76h-12v-76z"/><path class="d" d="m450 212v76h-12v-76z"/><path class="c" d="m62 62h176v76h-176z"/><path class="b" d="m462 74c-6.6 0-12-5.4-12-12 0-6.6 5.4-12 12-12 6.6 0 12 5.4 12 12 0 6.6-5.4 12-12 12z"/><path class="b" d="m638 74c-6.6 0-12-5.4-12-12 0-6.6 5.4-12 12-12 6.6 0 12 5.4 12 12 0 6.6-5.4 12-12 12z"/><path class="b" d="m638 150c-6.6 0-12-5.4-12-12 0-6.6 5.4-12 12-12 6.6 0 12 5.4 12 12 0 6.6-5.4 12-12 12z"/><path class="b" d="m462 150c-6.6 0-12-5.4-12-12 0-6.6 5.4-12 12-12 6.6 0 12 5.4 12 12 0 6.6-5.4 12-12 12z"/><path class="c" d="m462 62h176v76h-176z"/><path class="c" d="m62 362h176v76h-176z"/><path class="d" d="m62 350h176v12h-176z"/><path class="d" d="m62 438h176v12h-176z"/><path class="d" d="m62 362v76h-12v-76z"/><path class="d" d="m250 362v76h-12v-76z"/></svg>