<svg version="1.2" xmlns="http://www.w3.org/2000/svg" viewBox="0 0 1920 1080" width="1920" height="1080"><style>.A{fill:#f5f5f5}.B{fill:#1976d2}.C{fill:#64b5f6}.D{fill:#fff;paint-order:stroke fill markers;stroke-linejoin:round;stroke-opacity:.3;stroke-width:4}.E{fill:#81c784}.F{fill:#fff;paint-order:stroke fill markers;stroke-linejoin:round;stroke-opacity:.5;stroke-width:4}.G{fill:#fff;paint-order:stroke fill markers;stroke-linejoin:round;stroke-opacity:.6;stroke-width:4}.H{fill:#616161}.I{fill:#37474f}.J{fill:#212121}</style><path class="A" d="m0 0h1920v1080h-1920z"/><path  d="m1528.8 1023.2h-6.3v16.8h6.3c5.4 0 8.8-3.4 8.8-8.4c0-5-3.4-8.4-8.8-8.4zm-2.2 13.2v-9.7h1.9c3.1 0 5 1.8 5 4.9c0 3.1-1.9 4.8-5 4.8zm19.7-13.2h-6.3v16.8h6.3c5.4 0 8.8-3.4 8.8-8.4c0-5-3.4-8.4-8.8-8.4zm-2.2 13.2v-9.7h1.9c3.1 0 4.9 1.8 4.9 4.9c0 3.1-1.8 4.8-4.9 4.8zm30-4.9c0-5-3.9-8.6-8.7-8.6c-4.7 0-8.6 3.6-8.6 8.6c0 5.1 3.9 8.7 8.6 8.7c4.8 0 8.7-3.6 8.7-8.7zm-13.1 0c0-3 1.7-4.9 4.4-4.9c2.7 0 4.5 1.9 4.5 4.9c0 3-1.8 4.9-4.5 4.9c-2.7 0-4.4-1.9-4.4-4.9zm19.6 1.8c0 4.2 2.6 6.9 5.9 6.9c2 0 3.4-0.9 4.1-2.1v1.9h4.1v-13.4h-4.1v1.9c-0.7-1.2-2.1-2.1-4.1-2.1c-3.3 0-5.9 2.7-5.9 6.9zm10 0c0 2.1-1.3 3.3-2.9 3.3c-1.5 0-2.9-1.2-2.9-3.3c0-2.2 1.4-3.3 2.9-3.3c1.6 0 2.9 1.2 2.9 3.3zm16.4 6.7h4v-7.8c0-3.6-2-5.7-5.1-5.7c-1.8 0-3.3 0.8-4.1 1.9v-1.8h-4.1v13.4h4.1v-7.3c0-1.8 1-2.8 2.6-2.8c1.6 0 2.6 1 2.6 2.8zm6.1-6.7c0 4.2 2.6 6.9 5.9 6.9c2 0 3.4-0.9 4.1-2.1v1.9h4.1v-17.7h-4.1v6.2c-0.8-1.2-2.3-2.1-4.1-2.1c-3.3 0-5.9 2.7-5.9 6.9zm10 0c0 2.2-1.4 3.3-2.9 3.3c-1.6 0-2.9-1.2-2.9-3.3c0-2.1 1.3-3.3 2.9-3.3c1.5 0 2.9 1.2 2.9 3.3zm16.3-2.6v-4.2h2.2c1.6 0 2.3 0.8 2.3 2.1c0 1.3-0.7 2.1-2.3 2.1zm8.8-2.1c0-3.1-2.1-5.4-6.2-5.4h-6.7v16.8h4.1v-6h2.6c4.3 0 6.2-2.6 6.2-5.4zm15.2 4.7c0-4.2-3-6.9-7-6.9c-3.9 0-6.9 2.7-6.9 6.9c0 4.3 2.9 6.9 6.9 6.9c3.9 0 7-2.6 7-6.9zm-9.8 0c0-2.2 1.3-3.3 2.8-3.3c1.5 0 2.8 1.1 2.8 3.3c0 2.3-1.4 3.4-2.8 3.4c-1.5 0-2.8-1.1-2.8-3.4zm14.2 6.7h4.5l2.2-8.7l2.1 8.7h4.6l3.6-13.4h-3.9l-1.8 9.6l-2.3-9.6h-4.4l-2.2 9.6l-1.9-9.6h-4.1zm24.4-10.3c1.4 0 2.5 0.9 2.5 2.3h-5.1c0.2-1.4 1.3-2.3 2.6-2.3zm6.4 5.9h-4.3c-0.4 0.7-1 1.3-2.2 1.3c-1.3 0-2.4-0.8-2.5-2.6h9.3c0-0.4 0-0.8 0-1.2c0-4.1-2.7-6.6-6.6-6.6c-4 0-6.8 2.6-6.8 6.8c0 4.3 2.8 6.9 6.8 6.9c3.3 0 5.7-2 6.3-4.6zm6.6-1.8c0-2.3 1.1-3 3.1-3h1.1v-4.3c-1.8 0-3.3 1-4.2 2.4v-2.3h-4.1v13.4h4.1zm20.5 1.1c0 1.2-0.7 1.8-2.1 1.8h-3v-3.7h2.9c1.4 0 2.2 0.7 2.2 1.9zm-0.4-6.6c0 1.1-0.7 1.7-2.1 1.7h-2.6v-3.5h2.6c1.4 0 2.1 0.6 2.1 1.8zm4.6 7.2c0-2-1.3-3.7-3.2-4.1c1.6-0.5 2.8-1.8 2.8-3.8c0-2.7-2-4.4-5.5-4.4h-7.5v16.9h7.8c3.6 0 5.6-1.8 5.6-4.6zm2.4 4.6h4.1v-16.9h-4.1zm28.7-8.5c0-5-3.8-8.6-8.6-8.6c-4.8 0-8.7 3.6-8.7 8.6c0 5.1 3.9 8.7 8.7 8.7c4.8 0 8.6-3.6 8.6-8.7zm-13.1 0c0-3 1.8-4.9 4.5-4.9c2.7 0 4.4 1.9 4.4 4.9c0 3-1.7 4.9-4.4 4.9c-2.7 0-4.5-1.9-4.5-4.9zm14.1-4.9l4.8 13.4h5l4.8-13.4h-4.4l-2.9 9.6l-2.9-9.6zm22.2 3.1c1.4 0 2.5 0.8 2.5 2.3h-5.1c0.2-1.5 1.3-2.3 2.6-2.3zm6.4 5.9h-4.3c-0.4 0.7-1 1.3-2.2 1.3c-1.3 0-2.4-0.9-2.5-2.6h9.3c0-0.4 0-0.8 0-1.2c0-4.1-2.7-6.7-6.6-6.7c-4 0-6.8 2.7-6.8 6.9c0 4.3 2.8 6.9 6.8 6.9c3.3 0 5.7-2 6.3-4.6zm6.6-1.8c0-2.3 1.1-3 3.1-3h1.1v-4.3c-1.8 0-3.3 0.9-4.2 2.3v-2.2h-4.1v13.4h4.1zm4.9-7.2l4.8 13.4h5l4.8-13.4h-4.4l-2.9 9.6l-2.9-9.6zm16.3 13.4h4.1v-13.4h-4.1zm2.1-14.8c1.4 0 2.4-0.9 2.4-2.2c0-1.2-1-2.2-2.4-2.2c-1.5 0-2.5 1-2.5 2.2c0 1.3 1 2.2 2.5 2.2zm10.9 4.5c1.3 0 2.5 0.9 2.5 2.3h-5.1c0.2-1.5 1.2-2.3 2.6-2.3zm6.4 5.9h-4.4c-0.3 0.7-1 1.3-2.1 1.3c-1.3 0-2.4-0.8-2.6-2.6h9.3c0.1-0.4 0.1-0.8 0.1-1.2c0-4.1-2.8-6.7-6.7-6.7c-4 0-6.7 2.7-6.7 6.9c0 4.3 2.8 6.9 6.7 6.9c3.4 0 5.7-2 6.4-4.6zm4.7 4.4h4.5l2.2-8.7l2.1 8.7h4.6l3.6-13.4h-3.9l-1.9 9.6l-2.2-9.6h-4.4l-2.2 9.6l-1.9-9.6h-4.1z"/><path  d="m1599.6 1065h1.6v-5.8c0-2.8-1.7-4.2-4-4.2c-1.5 0-2.9 0.7-3.4 2.2c-0.7-1.5-2-2.2-3.7-2.2c-1.3 0-2.4 0.5-3.1 1.6v-1.5h-1.6v9.9h1.6v-5.4c0-2.2 1.2-3.2 2.8-3.2c1.6 0 2.7 1 2.7 3v5.6h1.6v-5.4c0-2.2 1.2-3.2 2.8-3.2c1.6 0 2.7 1 2.7 3zm3.7-4.9c0 3 2 5.1 4.7 5.1c1.8 0 3.1-1 3.7-2v1.8h1.6v-9.8h-1.6v1.8c-0.6-1.1-1.9-2-3.7-2c-2.7 0-4.7 2-4.7 5.1zm8.4 0c0 2.3-1.6 3.6-3.4 3.6c-1.8 0-3.3-1.3-3.3-3.6c0-2.4 1.5-3.7 3.3-3.7c1.8 0 3.4 1.4 3.4 3.7zm4.8 2.2c0 2 0.9 2.7 2.7 2.7h1.5v-1.4h-1.2c-1 0-1.4-0.3-1.4-1.3v-5.8h2.6v-1.3h-2.6v-2.5h-1.6v2.5h-1.3v1.3h1.3zm6.1 2.7h1.7v-5.4c0-2.2 1.1-3.2 2.8-3.2c1.7 0 2.8 1 2.8 3v5.6h1.6v-5.8c0-2.8-1.8-4.2-4-4.2c-1.3 0-2.6 0.5-3.2 1.6v-4.9h-1.7zm18.7-2.7c-0.1-3.5-5.8-2.2-5.8-4.6c0-0.8 0.7-1.4 1.9-1.4c1.3 0 2.1 0.8 2.1 1.8h1.7c-0.1-2-1.6-3.1-3.8-3.1c-2.2 0-3.6 1.2-3.6 2.7c0 3.7 5.9 2.4 5.9 4.6c0 0.8-0.8 1.5-2.1 1.5c-1.3 0-2.2-0.8-2.3-1.7h-1.7c0.1 1.8 1.8 3 4.1 3c2.1 0 3.6-1.2 3.6-2.8zm11.6-2.3c0-3.1-2.2-5-5-5c-2.8 0-5 1.9-5 5c0 3.2 2.2 5.1 5 5.1c2.8 0 5-1.9 5-5.1zm-8.3 0c0-2.4 1.6-3.6 3.3-3.6c1.7 0 3.3 1.2 3.3 3.6c0 2.5-1.6 3.7-3.3 3.7c-1.7 0-3.3-1.2-3.3-3.7zm10.8 5h1.6v-8.5h2.1v-1.4h-2.1v-0.7c0-1.3 0.5-1.8 2-1.8v-1.4c-2.5 0-3.6 1-3.6 3.2v0.7h-1.3v1.4h1.3zm6-2.7c0 2 1 2.7 2.7 2.7h1.5v-1.4h-1.2c-1 0-1.4-0.4-1.4-1.3v-5.8h2.6v-1.4h-2.6v-2.5h-1.6v2.5h-1.3v1.4h1.3zm8.1 2.7h1.7l2.3-7.9l2.4 7.9h1.7l3.1-9.9h-1.6l-2.3 8.3l-2.4-8.3h-1.6l-2.5 8.3l-2.2-8.3h-1.7zm12.2-5c0 3.1 2 5.2 4.7 5.2c1.8 0 3.1-1 3.7-2v1.8h1.6v-9.9h-1.6v1.8c-0.6-1-1.9-1.9-3.7-1.9c-2.7 0-4.7 1.9-4.7 5zm8.4 0c0 2.4-1.6 3.7-3.4 3.7c-1.8 0-3.3-1.4-3.3-3.7c0-2.3 1.5-3.6 3.3-3.6c1.8 0 3.4 1.4 3.4 3.6zm6-0.4c0-2.3 1.2-3 2.8-3h0.4v-1.7c-1.6 0-2.6 0.7-3.2 1.8v-1.6h-1.6v9.9h1.6zm9.3-3.3c1.7 0 3.1 1.1 3.1 3h-6.2c0.2-1.9 1.5-3 3.1-3zm4.6 5.6h-1.8c-0.3 1.1-1.3 1.8-2.7 1.8c-1.7 0-3.1-1.1-3.2-3.1h7.8c0.1-0.3 0.1-0.6 0.1-1c0-2.7-1.9-4.7-4.7-4.7c-2.9 0-4.9 2-4.9 5.1c0 3.1 2.1 5.1 4.9 5.1c2.4 0 4-1.4 4.5-3.2zm4 2.1c0-0.7-0.5-1.2-1.1-1.2c-0.6 0-1.1 0.5-1.1 1.2c0 0.6 0.5 1.1 1.1 1.1c0.6 0 1.1-0.5 1.1-1.1zm6.3-7.7c1.7 0 3.2 1.1 3.1 3h-6.2c0.2-1.9 1.5-3 3.1-3zm4.6 5.6h-1.7c-0.4 1.1-1.3 1.8-2.8 1.8c-1.7 0-3.1-1.1-3.2-3.1h7.9c0-0.3 0-0.6 0-1c0-2.7-1.8-4.7-4.7-4.7c-2.9 0-4.9 2-4.9 5.1c0 3.1 2.1 5.1 4.9 5.1c2.5 0 4-1.4 4.5-3.2zm9.6 3.1h1.6v-5.9c0-2.8-1.7-4.2-4-4.2c-1.3 0-2.5 0.6-3.2 1.6v-1.4h-1.6v9.9h1.6v-5.5c0-2.1 1.2-3.2 2.9-3.2c1.6 0 2.7 1.1 2.7 3.1zm3.7-5c0 3.1 2 5.1 4.7 5.1c1.8 0 3.1-0.9 3.7-2v2.1c0 2.1-1.4 3.2-3.1 3.2c-1.6 0-2.8-0.8-3.1-2h-1.7c0.4 2.1 2.2 3.4 4.8 3.4c2.9 0 4.7-1.9 4.7-4.6v-10.1h-1.6v1.8c-0.6-1-1.9-1.9-3.7-1.9c-2.7 0-4.7 1.9-4.7 5zm8.4 0c0 2.4-1.6 3.7-3.4 3.7c-1.8 0-3.3-1.4-3.3-3.7c0-2.3 1.5-3.6 3.3-3.6c1.8 0 3.4 1.3 3.4 3.6zm4.4 5h1.6v-9.9h-1.6zm0.8-11.5c0.6 0 1.1-0.4 1.1-1.1c0-0.6-0.5-1.1-1.1-1.1c-0.6 0-1.1 0.5-1.1 1.1c0 0.7 0.5 1.1 1.1 1.1zm10.8 11.5h1.7v-5.8c0-2.8-1.8-4.2-4.1-4.2c-1.3 0-2.5 0.5-3.1 1.6v-1.4h-1.7v9.8h1.7v-5.4c0-2.2 1.1-3.2 2.8-3.2c1.6 0 2.7 1 2.7 3zm8.5-8.6c1.7 0 3.2 1.1 3.1 3h-6.2c0.2-1.9 1.5-3 3.1-3zm4.6 5.6h-1.7c-0.4 1.1-1.3 1.8-2.8 1.8c-1.7 0-3.1-1.1-3.2-3.1h7.9c0-0.3 0-0.6 0-1c0-2.7-1.8-4.7-4.7-4.7c-2.9 0-4.9 2-4.9 5.1c0 3.1 2.1 5.1 4.9 5.1c2.5 0 4-1.4 4.5-3.2zm6.6-5.6c1.7 0 3.1 1.1 3.1 3h-6.2c0.2-1.9 1.5-3 3.1-3zm4.6 5.6h-1.8c-0.3 1.1-1.3 1.8-2.7 1.8c-1.7 0-3.1-1.1-3.2-3.1h7.8c0.1-0.3 0.1-0.6 0.1-1c0-2.7-1.9-4.7-4.7-4.7c-2.9 0-4.9 2-4.9 5.1c0 3.1 2.1 5.1 4.9 5.1c2.4 0 4-1.4 4.5-3.2zm4-2.3c0-2.3 1.2-3 2.7-3h0.5v-1.7c-1.6 0-2.6 0.7-3.2 1.8v-1.6h-1.6v9.8h1.6z"/><path class="B" d="m1015.1 782.3q2.9 2.6 2.9 6.7q0 4-2.9 6.8l-51.3 48.4q-3.1 2.8-7.2 2.8q-4 0-7.1-2.8l-5.9-5.5q-3-2.9-3-6.8q0-4 3-6.8l23.1-21.8h-55.5q-4.1 0-6.6-2.8q-2.6-2.8-2.6-6.7v-9.6q0-3.9 2.6-6.7q2.5-2.8 6.6-2.8h55.5l-23.1-21.9q-3-2.7-3-6.7q0-4 3-6.7l5.9-5.6q3-2.8 7.1-2.8q4.2 0 7.2 2.8l51.3 48.5z"/><path class="C" d="m462.7 537.1q-2.6 2.9-6.7 2.9q-4 0-6.8-2.9l-48.4-51.3q-2.8-3.1-2.8-7.2q0-4 2.8-7.1l5.5-5.9q2.9-3 6.8-3q4 0 6.8 3l21.8 23.1v-55.5q0-4.1 2.8-6.6q2.8-2.6 6.7-2.6h9.6q3.9 0 6.7 2.6q2.8 2.5 2.8 6.6v55.5l21.9-23.1q2.7-3 6.7-3q4 0 6.7 3l5.6 5.9q2.8 3 2.8 7.1q0 4.2-2.8 7.2l-48.5 51.3z"/><rect class="D" x="660" y="50" width="600" height="400" rx="64"></rect><path  d="m786.4 89.5h-8.4v22.5h8.4c7.2 0 11.8-4.6 11.8-11.2c0-6.7-4.6-11.3-11.8-11.3zm-2.9 17.8v-13.1h2.5c4.2 0 6.6 2.4 6.6 6.6c0 4.1-2.4 6.5-6.6 6.5zm31.6-17.8h-13.8v22.5h13.8v-4.4h-8.3v-4.9h7.3v-4.2h-7.3v-4.6h8.3zm19.9 15.8c0-7.5-11.1-5.8-11.1-9.7c0-1.4 1-2 2.3-2c1.4 0 2.5 0.9 2.6 2.3h5.9c-0.2-4.3-3.5-6.7-8.4-6.7c-4.7 0-8.2 2.4-8.2 6.6c-0.1 8 11.1 5.8 11.1 9.9c0 1.3-1 2.1-2.6 2.1c-1.5 0-2.6-0.8-2.8-2.5h-5.8c0.2 4.5 3.9 6.9 8.8 6.9c5.2 0 8.2-3.1 8.2-6.9zm2.4-4.6c0 6.7 4.7 11.4 11.3 11.4c5.3 0 9.4-2.9 10.7-7.8h-6.1c-0.9 1.9-2.6 2.9-4.7 2.9c-3.3 0-5.6-2.5-5.6-6.5c0-3.9 2.3-6.4 5.6-6.4c2.1 0 3.8 0.9 4.7 2.8h6.1c-1.3-4.8-5.4-7.8-10.7-7.8c-6.6 0-11.3 4.7-11.3 11.4zm37.2-3.9c0 1.8-1 2.8-3 2.8h-3.4v-5.5h3.4c2 0 3 1.1 3 2.7zm-11.9-7.3v22.5h5.5v-8.5h1.3l4.7 8.5h6.1l-5.1-8.9c3.4-1 5-3.7 5-6.5c0-3.9-2.8-7.1-8.3-7.1zm20.9 22.5h5.4v-22.5h-5.4zm14.9-12.4v-5.6h3c2.1 0 3.1 1.1 3.1 2.8c0 1.7-1 2.8-3.1 2.8zm11.6-2.8c0-4.1-2.8-7.2-8.3-7.2h-8.8v22.4h5.5v-8h3.3c5.8 0 8.3-3.5 8.3-7.2zm1.6-2.9h6v18.1h5.5v-18.1h5.9v-4.3h-17.4zm20.2 18h5.4v-22.4h-5.4zm19.1-5.5l-5.6-17h-5.8l8 22.5h6.8l8-22.5h-5.8zm27.4-17h-13.7v22.5h13.7v-4.4h-8.3v-4.9h7.4v-4.2h-7.4v-4.6h8.3zm25.7 22.5h5.8l-8.2-22.5h-6.3l-8.1 22.5h5.7l1.4-4h8.3zm-2.7-8.2h-5.5l2.7-8.2zm25.6-14.3v14l-9.1-14h-5.5v22.5h5.5v-13.9l9.1 13.9h5.5v-22.5zm24.8 22.5h5.8l-8.2-22.5h-6.3l-8.1 22.5h5.7l1.3-4h8.4zm-2.7-8.2h-5.6l2.8-8.2zm11-14.3v22.5h12.6v-4.2h-7.1v-18.3zm21.3 15.1v7.4h5.4v-7.4l7.8-15.1h-6.1l-4.4 9.5l-4.3-9.5h-6.2zm31.8 0.8c0-7.5-11.1-5.8-11.1-9.7c0-1.4 0.9-2.1 2.3-2c1.4 0 2.5 0.9 2.5 2.3h6c-0.3-4.3-3.6-6.7-8.4-6.7c-4.8 0-8.2 2.4-8.2 6.6c-0.1 8 11.1 5.7 11.1 9.9c0 1.3-1 2.1-2.6 2.1c-1.5 0-2.6-0.8-2.8-2.5h-5.8c0.2 4.5 3.9 6.9 8.8 6.9c5.2 0 8.2-3.1 8.2-6.9zm3.3 6.7h5.5v-22.5h-5.5zm25.8-6.7c0-7.5-11.1-5.7-11.1-9.6c0-1.5 1-2.1 2.3-2.1c1.4 0 2.5 0.9 2.6 2.3h5.9c-0.2-4.2-3.5-6.7-8.4-6.7c-4.7 0-8.2 2.4-8.2 6.6c-0.1 8 11.1 5.8 11.1 9.9c0 1.3-1 2.1-2.6 2.1c-1.5 0-2.6-0.8-2.8-2.5h-5.8c0.2 4.5 4 6.9 8.8 6.9c5.2 0 8.2-3.1 8.2-6.9z"/><path class="E" d="m880 205h39v65h-39z"/><path class="E" d="m940 183h39v87h-39z"/><path class="E" d="m1000 140h39v130h-39z"/><path  d="m876.2 327h2.5l4-13.5l3.9 13.5h2.4l4.9-16.7h-2.4l-3.7 14.1l-3.8-14.1h-2.4l-4.1 14.2l-3.6-14.2h-2.3zm30.7-0.1h2.2v-16.7h-2.2v7.4h-8.5v-7.4h-2.2v16.7h2.2v-7.5h8.5zm17.1 0h2.3l-6-16.7h-2.5l-6.1 16.7h2.3l1.4-3.8h7.3zm-2-5.5h-6.1l3.1-8.4zm5.9-9.5h4.5v15h2.2v-15h4.6v-1.7h-11.3zm23.8 14.9h2.4l4-13.4l3.9 13.4h2.5l4.8-16.7h-2.4l-3.6 14.1l-3.9-14.1h-2.4l-4 14.2l-3.7-14.2h-2.3zm29-16.8h-9v16.8h9v-1.8h-6.8v-5.8h6.1v-1.8h-6.1v-5.6h6.8zm20.4 16.8h2.2v-16.8h-2.2v7.4h-8.5v-7.4h-2.2v16.8h2.2v-7.6h8.5zm17.2 0h2.3l-6.1-16.6h-2.5l-6 16.6h2.3l1.3-3.7h7.3zm-2-5.5h-6l3-8.5zm13.2 3.2l-5.3-14.4h-2.3l6.3 16.7h2.5l6.4-16.7h-2.3zm18.9-14.5h-9v16.8h9v-1.8h-6.8v-5.8h6.1v-1.8h-6.1v-5.6h6.8z"/><path  d="m746.8 389h2.2v-16.7h-2.2zm6.4-3.6c0 2.6 1.4 3.6 3.7 3.6h1.9v-1.9h-1.6c-1.3 0-1.8-0.4-1.8-1.7v-7.8h3.4v-1.8h-3.4v-3.3h-2.2v3.3h-1.7v1.8h1.7zm16.9-3.5c0-3.1 1.6-4 3.7-4h0.5v-2.3c-2.1 0-3.5 0.9-4.2 2.4v-2.1h-2.2v13.1h2.2zm12.3-4.3c2.3 0 4.2 1.4 4.2 3.9h-8.3c0.2-2.5 2-3.9 4.1-3.9zm6.2 7.4h-2.4c-0.4 1.4-1.7 2.4-3.7 2.4c-2.2 0-4.1-1.4-4.2-4.1h10.5c0-0.4 0-0.8 0-1.3c0-3.6-2.4-6.3-6.3-6.3c-3.8 0-6.5 2.6-6.5 6.8c0 4.1 2.8 6.8 6.5 6.8c3.3 0 5.4-1.9 6.1-4.3zm2.3-2.6c0 4.1 2.7 6.9 6.2 6.9c2.5 0 4.2-1.3 4.9-2.7v8.7h2.3v-19.4h-2.3v2.4c-0.7-1.3-2.4-2.6-4.8-2.6c-3.6 0-6.3 2.6-6.3 6.7zm11.1 0.1c0 3.1-2 4.9-4.4 4.9c-2.4 0-4.5-1.9-4.5-5c0-3 2.1-4.8 4.5-4.8c2.4 0 4.4 1.8 4.4 4.9zm17.6-6.6h-2.2v7.2c0 2.9-1.5 4.3-3.7 4.3c-2.2 0-3.7-1.4-3.7-4.1v-7.4h-2.2v7.7c0 3.8 2.4 5.7 5.4 5.7c1.8 0 3.4-0.8 4.2-2.2v2h2.2zm3.7 13.1h2.2v-13.1h-2.2zm1.1-15.3c0.8 0 1.5-0.7 1.5-1.5c0-0.8-0.7-1.5-1.5-1.5c-0.8 0-1.4 0.7-1.4 1.5c0 0.8 0.6 1.5 1.4 1.5zm7 8.1c0-3 1.6-4 3.7-4h0.5v-2.2c-2 0-3.5 0.9-4.2 2.4v-2.2h-2.2v13.2h2.2zm12.4-4.4c2.2 0 4.1 1.4 4.1 4h-8.3c0.2-2.6 2-4 4.2-4zm6.1 7.5h-2.3c-0.5 1.4-1.8 2.4-3.7 2.4c-2.3 0-4.1-1.5-4.3-4.1h10.5c0-0.5 0.1-0.9 0.1-1.4c0-3.6-2.5-6.2-6.3-6.2c-3.9 0-6.5 2.6-6.5 6.7c0 4.2 2.7 6.8 6.5 6.8c3.2 0 5.3-1.8 6-4.2zm12.6 0.4c-0.1-4.7-7.7-3-7.7-6.1c0-1 0.9-1.8 2.5-1.8c1.8 0 2.8 1 2.9 2.3h2.2c-0.2-2.6-2.1-4.1-5-4.1c-2.9 0-4.8 1.6-4.8 3.6c0 4.9 7.8 3.2 7.8 6.1c0 1.1-1 2-2.7 2c-1.9 0-3-1-3.1-2.2h-2.3c0.2 2.4 2.3 4 5.4 4c2.9 0 4.8-1.6 4.8-3.8zm11.7-7.1v-7h-2.2v17.7h2.2v-2.4c0.8 1.4 2.5 2.6 4.9 2.6c3.5 0 6.2-2.7 6.2-6.8c0-4.1-2.7-6.7-6.2-6.7c-2.3 0-4.1 1.2-4.9 2.6zm8.9 4.1c0 3.1-2 4.9-4.5 4.9c-2.3 0-4.4-1.8-4.4-4.9c0-3 2.1-4.8 4.4-4.8c2.5 0 4.5 1.7 4.5 4.8zm4.3 0c0 4.1 2.7 6.8 6.2 6.8c2.4 0 4.1-1.2 4.9-2.6v2.4h2.2v-13.1h-2.2v2.4c-0.7-1.4-2.4-2.6-4.9-2.6c-3.5 0-6.2 2.6-6.2 6.7zm11.1 0c0 3.1-2 4.9-4.4 4.9c-2.4 0-4.5-1.8-4.5-4.9c0-3.1 2.1-4.8 4.5-4.8c2.4 0 4.4 1.8 4.4 4.8zm15.4 3c-0.1-4.7-7.7-3-7.7-6.1c0-1 0.9-1.8 2.5-1.8c1.8 0 2.8 1 2.9 2.3h2.2c-0.2-2.6-2.1-4.1-5-4.1c-2.9 0-4.8 1.6-4.8 3.6c0 4.9 7.8 3.2 7.8 6.1c0 1.1-1 2-2.7 2c-1.9 0-3-1-3.1-2.2h-2.3c0.2 2.4 2.3 4 5.4 4c2.9 0 4.8-1.6 4.8-3.8zm3.1 3.6h2.1v-13.1h-2.1zm1.1-15.3c0.8 0 1.4-0.7 1.4-1.5c0-0.8-0.6-1.5-1.4-1.5c-0.9 0-1.5 0.7-1.5 1.5c0 0.8 0.6 1.5 1.5 1.5zm3.9 8.7c0 4.1 2.7 6.8 6.5 6.8c3.2 0 5.4-1.8 6-4.5h-2.3c-0.5 1.7-1.8 2.6-3.7 2.6c-2.4 0-4.2-1.7-4.2-4.9c0-3.2 1.8-4.9 4.2-4.9c1.9 0 3.2 1 3.7 2.5h2.3c-0.6-2.7-2.8-4.4-6-4.4c-3.8 0-6.5 2.6-6.5 6.8zm40.8 6.6h2.2v-7.8c0-3.7-2.3-5.6-5.3-5.6c-2.1 0-3.9 1-4.7 2.9c-0.9-2-2.7-2.9-4.8-2.9c-1.8 0-3.3 0.7-4.2 2.1v-1.9h-2.2v13.2h2.2v-7.3c0-2.8 1.5-4.2 3.7-4.2c2.2 0 3.6 1.3 3.6 4v7.5h2.2v-7.3c0-2.8 1.5-4.2 3.7-4.2c2.2 0 3.6 1.3 3.6 4zm4.9-6.6c0 4.1 2.8 6.8 6.3 6.8c2.4 0 4.1-1.2 4.9-2.6v2.4h2.2v-13.1h-2.2v2.4c-0.8-1.4-2.5-2.6-4.9-2.6c-3.5 0-6.3 2.6-6.3 6.7zm11.2 0c0 3.1-2.1 4.9-4.5 4.9c-2.4 0-4.4-1.8-4.4-4.9c0-3.1 2-4.8 4.4-4.8c2.4 0 4.5 1.8 4.5 4.8zm6.4 3c0 2.7 1.3 3.6 3.6 3.6h2v-1.8h-1.6c-1.4 0-1.9-0.5-1.9-1.8v-7.7h3.5v-1.8h-3.5v-3.3h-2.1v3.3h-1.7v1.8h1.7zm8.2 3.6h2.2v-7.3c0-2.8 1.5-4.2 3.8-4.2c2.2 0 3.6 1.4 3.6 4v7.5h2.2v-7.8c0-3.7-2.3-5.6-5.3-5.6c-1.8 0-3.4 0.7-4.3 2.1v-6.5h-2.2zm21-6.6c0 4.1 2.7 6.8 6.2 6.8c2.4 0 4.1-1.2 4.9-2.6v2.4h2.2v-13.1h-2.2v2.4c-0.8-1.4-2.4-2.6-4.9-2.6c-3.5 0-6.2 2.6-6.2 6.7zm11.1 0c0 3.1-2.1 4.9-4.5 4.9c-2.4 0-4.4-1.8-4.4-4.9c0-3.1 2-4.9 4.4-4.9c2.4 0 4.5 1.9 4.5 4.9zm15.5 6.6h2.2v-7.7c0-3.8-2.3-5.7-5.4-5.7c-1.8 0-3.3 0.8-4.2 2.1v-1.8h-2.2v13.1h2.2v-7.3c0-2.8 1.5-4.2 3.8-4.2c2.2 0 3.6 1.4 3.6 4.1zm5-6.6c0 4 2.7 6.8 6.2 6.8c2.4 0 4.1-1.2 4.9-2.7v2.5h2.2v-17.8h-2.2v7c-0.9-1.5-2.8-2.6-4.9-2.6c-3.5 0-6.2 2.7-6.2 6.8zm11.1 0c0 3.1-2.1 4.9-4.5 4.9c-2.4 0-4.4-1.8-4.4-4.9c0-3.1 2-4.9 4.4-4.9c2.4 0 4.5 1.8 4.5 4.9zm21.8 3c-0.1-4.7-7.8-3-7.8-6.1c0-1.1 1-1.8 2.6-1.8c1.8 0 2.8 0.9 2.9 2.2h2.1c-0.1-2.5-2-4.1-4.9-4.1c-3 0-4.9 1.7-4.9 3.7c0 4.9 7.8 3.2 7.8 6.1c0 1.1-0.9 1.9-2.7 1.9c-1.8 0-2.9-0.9-3.1-2.2h-2.2c0.1 2.4 2.3 4.1 5.4 4.1c2.9 0 4.8-1.6 4.8-3.8zm3.5 0c0 2.6 1.3 3.6 3.7 3.6h1.9v-1.9h-1.6c-1.3 0-1.8-0.4-1.8-1.7v-7.8h3.4v-1.8h-3.4v-3.3h-2.2v3.3h-1.7v1.8h1.7zm7.5-3c0 4.1 2.7 6.8 6.2 6.8c2.4 0 4.1-1.2 4.9-2.6v2.4h2.2v-13.1h-2.2v2.4c-0.8-1.4-2.5-2.6-4.9-2.6c-3.5 0-6.2 2.6-6.2 6.7zm11.1 0c0 3.1-2.1 4.9-4.5 4.9c-2.4 0-4.4-1.8-4.4-4.9c0-3.1 2-4.8 4.4-4.8c2.4 0 4.5 1.8 4.5 4.8zm6.4 3c0 2.7 1.3 3.6 3.6 3.6h2v-1.8h-1.6c-1.4 0-1.8-0.5-1.8-1.8v-7.7h3.4v-1.8h-3.4v-3.3h-2.2v3.3h-1.7v1.8h1.7zm8.2 3.6h2.2v-13.2h-2.2zm1.2-15.3c0.7 0 1.4-0.6 1.4-1.5c0-0.8-0.7-1.4-1.4-1.4c-0.9 0-1.5 0.6-1.5 1.4c0 0.9 0.6 1.5 1.5 1.5zm14.2 11.7c-0.1-4.7-7.7-3-7.7-6.1c0-1 0.9-1.8 2.5-1.8c1.8 0 2.8 1 2.9 2.3h2.2c-0.2-2.6-2.1-4.1-5-4.1c-2.9 0-4.8 1.6-4.8 3.6c0 4.9 7.8 3.2 7.8 6.1c0 1.1-1 2-2.7 2c-1.9 0-3-1-3.1-2.2h-2.3c0.2 2.4 2.3 4 5.4 4c2.9 0 4.8-1.6 4.8-3.8zm3.5 0c0 2.7 1.4 3.6 3.7 3.6h2v-1.8h-1.7c-1.3 0-1.8-0.5-1.8-1.8v-7.7h3.5v-1.8h-3.5v-3.3h-2.2v3.3h-1.7v1.8h1.7zm8.3 3.6h2.2v-13.2h-2.2zm1.1-15.3c0.8 0 1.5-0.6 1.5-1.5c0-0.8-0.7-1.4-1.5-1.4c-0.8 0-1.5 0.6-1.5 1.4c0 0.9 0.7 1.5 1.5 1.5zm4 8.7c0 4.2 2.6 6.8 6.4 6.8c3.3 0 5.4-1.8 6.1-4.4h-2.4c-0.5 1.7-1.8 2.6-3.7 2.6c-2.4 0-4.2-1.7-4.2-5c0-3.2 1.8-4.9 4.2-4.9c1.9 0 3.3 1 3.7 2.6h2.4c-0.7-2.8-2.8-4.4-6.1-4.4c-3.8 0-6.4 2.6-6.4 6.7zm24.8 3c-0.1-4.7-7.7-3-7.7-6.1c0-1 1-1.8 2.6-1.8c1.7 0 2.7 1 2.8 2.3h2.2c-0.1-2.6-2.1-4.1-5-4.1c-2.9 0-4.8 1.6-4.8 3.6c0 4.9 7.8 3.2 7.8 6.1c0 1.1-1 2-2.7 2c-1.8 0-3-1-3.1-2.2h-2.3c0.2 2.4 2.4 4 5.4 4c2.9 0 4.8-1.6 4.8-3.8z"/><rect class="F" x="157" y="590" width="600" height="400" rx="64"></rect><path  d="m289.5 639.6v-5.6h2.9c2.2 0 3.1 1 3.1 2.8c0 1.7-0.9 2.8-3.1 2.8zm11.7-2.8c0-4.2-2.8-7.3-8.3-7.3h-8.8v22.5h5.4v-8.1h3.4c5.8 0 8.3-3.4 8.3-7.1zm14.7 0c0 1.8-1 2.8-3 2.8h-3.4v-5.5h3.4c2 0 3 1.1 3 2.7zm-11.9-7.3v22.5h5.5v-8.5h1.3l4.7 8.5h6.2l-5.2-8.9c3.4-1 5-3.7 5-6.5c0-3.9-2.8-7.1-8.3-7.1zm34.6 0h-13.7v22.5h13.7v-4.4h-8.3v-4.9h7.4v-4.2h-7.4v-4.6h8.3zm12 0h-8.4v22.5h8.4c7.2 0 11.8-4.6 11.8-11.2c0-6.7-4.6-11.3-11.8-11.3zm-2.9 17.7v-13h2.6c4.1 0 6.5 2.4 6.5 6.6c0 4.1-2.4 6.4-6.5 6.4zm17.7 4.8h5.5v-22.5h-5.5zm8.6-11.2c0 6.7 4.6 11.4 11.3 11.4c5.3 0 9.3-3 10.6-7.9h-6c-0.9 2-2.6 2.9-4.7 2.9c-3.4 0-5.7-2.5-5.7-6.4c0-4 2.3-6.5 5.7-6.5c2.1 0 3.8 1 4.7 2.9h6c-1.3-4.9-5.3-7.9-10.6-7.9c-6.7 0-11.3 4.7-11.3 11.5zm24.1-6.9h5.9v18.1h5.5v-18.1h5.9v-4.3h-17.3zm20.1 18h5.5v-22.4h-5.5zm19.1-5.5l-5.6-17h-5.8l8 22.5h6.8l8-22.5h-5.8zm27.4-17h-13.7v22.5h13.7v-4.4h-8.2v-4.9h7.3v-4.2h-7.3v-4.6h8.2zm25.7 22.5h5.8l-8.1-22.5h-6.4l-8.1 22.5h5.7l1.4-4h8.4zm-2.8-8.2h-5.5l2.7-8.2zm25.7-14.3v14l-9.2-14h-5.5v22.5h5.5v-13.9l9.2 13.9h5.4v-22.5zm24.8 22.5h5.8l-8.1-22.5h-6.4l-8.1 22.5h5.7l1.4-4h8.4zm-2.8-8.2h-5.5l2.7-8.2zm11-14.3v22.5h12.7v-4.2h-7.2v-18.3zm21.3 15.1v7.4h5.4v-7.4l7.8-15.1h-6.1l-4.3 9.5l-4.4-9.5h-6.2zm31.8 0.8c0-7.5-11.1-5.8-11.1-9.7c0-1.4 1-2.1 2.3-2c1.4 0 2.5 0.9 2.6 2.3h5.9c-0.2-4.3-3.5-6.7-8.4-6.7c-4.7 0-8.2 2.4-8.2 6.6c-0.1 8 11.1 5.7 11.1 9.9c0 1.3-1 2.1-2.6 2.1c-1.5 0-2.6-0.8-2.8-2.5h-5.8c0.2 4.5 4 6.9 8.8 6.9c5.2 0 8.2-3.1 8.2-6.9zm3.3 6.7h5.5v-22.5h-5.5zm25.8-6.7c0-7.5-11.1-5.7-11.1-9.6c0-1.5 1-2.1 2.3-2.1c1.5 0 2.5 0.9 2.6 2.3h5.9c-0.2-4.2-3.5-6.7-8.4-6.7c-4.7 0-8.2 2.4-8.2 6.6c-0.1 8 11.2 5.8 11.2 9.9c0 1.3-1.1 2.1-2.7 2.1c-1.5 0-2.6-0.8-2.7-2.5h-5.9c0.2 4.5 4 6.9 8.8 6.9c5.3 0 8.2-3.1 8.2-6.9z"/><path class="E" d="m390 746.9h25.3v42.1h-25.3z"/><path class="E" d="m428.9 732.6h25.2v56.4h-25.2z"/><path class="E" d="m467.7 704.8h25.3v84.2h-25.3z"/><path class="C" d="m472 675.3l7.2 8.3l-42.4 36.2l-7.1-8.4z"/><path class="C" d="m472 675.3l7.2 8.3l-42.4 36.2l-7.1-8.4z"/><path class="C" d="m522.6 662.2l2.8 10.6l-53.9 14.3l-2.8-10.6z"/><path class="C" d="m437.1 707.9l4 10.2l-51.1 20.2l-4-10.2z"/><path  d="m336.2 846h2.5l4-13.5l3.9 13.5h2.4l4.9-16.7h-2.4l-3.7 14.1l-3.8-14.1h-2.4l-4.1 14.2l-3.6-14.2h-2.3zm30.7-0.1h2.2v-16.7h-2.2v7.4h-8.5v-7.4h-2.2v16.7h2.2v-7.5h8.5zm17.1 0h2.3l-6-16.7h-2.5l-6.1 16.7h2.3l1.4-3.8h7.3zm-2-5.5h-6.1l3.1-8.4zm5.9-9.5h4.5v15h2.2v-15h4.6v-1.7h-11.3zm19.6 6.5c0 5.1 3.6 8.6 8.3 8.6c3.6 0 6.5-1.8 7.8-5.1h-2.7c-0.9 2-2.6 3.2-5.1 3.2c-3.5 0-6.1-2.6-6.1-6.7c0-4.1 2.6-6.6 6.1-6.6c2.5 0 4.2 1.1 5.1 3.1h2.7c-1.3-3.2-4.2-5-7.8-5c-4.7 0-8.3 3.5-8.3 8.5zm35.3 0c0-5-3.7-8.5-8.4-8.5c-4.7 0-8.4 3.5-8.4 8.5c0 5.1 3.7 8.6 8.4 8.6c4.7 0 8.4-3.5 8.4-8.6zm-14.6 0c0-4.1 2.7-6.6 6.2-6.6c3.5 0 6.2 2.5 6.2 6.6c0 4.1-2.7 6.7-6.2 6.7c-3.5 0-6.2-2.6-6.2-6.7zm17.4 2.3c0 4.3 2.9 6.3 6.3 6.3c3.5 0 6.3-2 6.3-6.3v-10.6h-2.2v10.6c0 3-1.6 4.4-4.1 4.4c-2.4 0-4.1-1.4-4.1-4.4v-10.6h-2.2zm16.3-10.6v16.8h8v-1.8h-5.8v-15zm15.5 0h-5.2v16.8h5.2c5.5 0 8.9-3.2 8.9-8.4c0-5.2-3.4-8.4-8.9-8.4zm-3 15v-13.2h3c4.4 0 6.7 2.6 6.7 6.6c0 4.1-2.3 6.6-6.7 6.6zm31.9 1.8h2.2v-16.8h-2.2v7.4h-8.5v-7.4h-2.2v16.8h2.2v-7.6h8.5zm17.1 0h2.3l-6-16.7h-2.5l-6.1 16.7h2.4l1.3-3.7h7.3zm-2-5.5h-6l3-8.5zm9.1-3.3v-6.1h3.2c2.5 0 3.6 1.1 3.6 3.1c0 1.8-1.1 3-3.6 3zm9-3c0-2.8-1.8-4.9-5.8-4.9h-5.4v16.7h2.2v-7h3.2c4.2 0 5.8-2.3 5.8-4.8zm4.9 3v-6.1h3.2c2.5 0 3.6 1.1 3.6 3.1c0 1.8-1.1 3-3.6 3zm9-3c0-2.8-1.8-4.9-5.8-4.9h-5.4v16.7h2.2v-7h3.2c4.2 0 5.8-2.3 5.8-4.8zm11.7-4.9h-9v16.7h9v-1.8h-6.8v-5.8h6.1v-1.8h-6.1v-5.5h6.8zm14.3 0v13.3l-8.8-13.3h-2.2v16.7h2.2v-13.3l8.8 13.3h2.2v-16.7z"/><path  d="m207.8 908h2.2v-16.7h-2.2zm6.4-3.6c0 2.6 1.4 3.6 3.7 3.6h1.9v-1.9h-1.6c-1.3 0-1.8-0.4-1.8-1.7v-7.8h3.4v-1.8h-3.4v-3.3h-2.2v3.3h-1.7v1.8h1.7zm16.9-3.5c0-3.1 1.6-4 3.7-4h0.5v-2.3c-2.1 0-3.5 0.9-4.2 2.4v-2.1h-2.2v13.1h2.2zm12.3-4.3c2.3 0 4.2 1.4 4.2 3.9h-8.3c0.2-2.5 2-3.9 4.1-3.9zm6.2 7.4h-2.4c-0.4 1.4-1.7 2.4-3.7 2.4c-2.2 0-4.1-1.4-4.2-4.1h10.5c0-0.4 0-0.8 0-1.3c0-3.6-2.4-6.3-6.3-6.3c-3.8 0-6.5 2.6-6.5 6.8c0 4.1 2.8 6.8 6.5 6.8c3.3 0 5.4-1.9 6.1-4.3zm2.3-2.6c0 4.1 2.7 6.9 6.2 6.9c2.5 0 4.2-1.3 4.9-2.7v8.7h2.3v-19.4h-2.3v2.4c-0.7-1.3-2.4-2.6-4.8-2.6c-3.6 0-6.3 2.6-6.3 6.7zm11.1 0.1c0 3.1-2 4.9-4.4 4.9c-2.4 0-4.5-1.9-4.5-5c0-3 2.1-4.8 4.5-4.8c2.4 0 4.4 1.8 4.4 4.9zm17.6-6.6h-2.2v7.2c0 2.9-1.5 4.3-3.7 4.3c-2.2 0-3.7-1.4-3.7-4.1v-7.4h-2.2v7.7c0 3.8 2.4 5.7 5.4 5.7c1.8 0 3.4-0.8 4.2-2.2v2h2.2zm3.7 13.1h2.2v-13.1h-2.2zm1.1-15.3c0.8 0 1.5-0.7 1.5-1.5c0-0.8-0.7-1.5-1.5-1.5c-0.8 0-1.4 0.7-1.4 1.5c0 0.8 0.6 1.5 1.4 1.5zm7 8.1c0-3 1.6-4 3.7-4h0.5v-2.2c-2 0-3.5 0.9-4.2 2.4v-2.2h-2.2v13.2h2.2zm12.4-4.4c2.2 0 4.1 1.4 4.1 4h-8.3c0.2-2.6 2-4 4.2-4zm6.1 7.5h-2.3c-0.5 1.4-1.8 2.4-3.7 2.4c-2.3 0-4.1-1.5-4.3-4.1h10.5c0-0.5 0.1-0.9 0.1-1.4c0-3.6-2.5-6.2-6.3-6.2c-3.9 0-6.5 2.6-6.5 6.7c0 4.2 2.7 6.8 6.5 6.8c3.2 0 5.3-1.8 6-4.2zm12.6 0.4c-0.1-4.7-7.7-3-7.7-6.1c0-1 0.9-1.8 2.5-1.8c1.8 0 2.8 1 2.9 2.3h2.2c-0.2-2.6-2.1-4.1-5-4.1c-2.9 0-4.8 1.6-4.8 3.6c0 4.9 7.8 3.2 7.8 6.1c0 1.1-1 2-2.7 2c-1.9 0-3-1-3.1-2.2h-2.3c0.2 2.4 2.3 4 5.4 4c2.9 0 4.8-1.6 4.8-3.8zm8.7-3c0 4.1 2.7 6.8 6.2 6.8c2.4 0 4.1-1.2 4.9-2.6v2.4h2.2v-17.7h-2.2v6.9c-0.9-1.5-2.8-2.5-4.9-2.5c-3.5 0-6.2 2.6-6.2 6.7zm11.1 0c0 3.1-2.1 4.9-4.5 4.9c-2.4 0-4.4-1.8-4.4-4.9c0-3.1 2-4.8 4.4-4.8c2.4 0 4.5 1.8 4.5 4.8zm5.1 0c0 4.1 2.7 6.8 6.2 6.8c2.4 0 4.1-1.2 4.9-2.6v2.4h2.2v-13.1h-2.2v2.4c-0.7-1.4-2.4-2.6-4.9-2.6c-3.5 0-6.2 2.6-6.2 6.7zm11.1 0c0 3.1-2 4.9-4.4 4.9c-2.4 0-4.5-1.8-4.5-4.9c0-3.1 2.1-4.8 4.5-4.8c2.4 0 4.4 1.8 4.4 4.8zm6.4 3c0 2.7 1.3 3.6 3.7 3.6h1.9v-1.8h-1.6c-1.3 0-1.8-0.5-1.8-1.8v-7.7h3.4v-1.8h-3.4v-3.3h-2.2v3.3h-1.7v1.8h1.7zm7.5-3.1c0 4.1 2.7 6.9 6.2 6.9c2.4 0 4.1-1.3 4.9-2.7v2.5h2.2v-13.2h-2.2v2.4c-0.8-1.3-2.5-2.6-4.9-2.6c-3.5 0-6.2 2.6-6.2 6.7zm11.1 0.1c0 3.1-2.1 4.9-4.5 4.9c-2.4 0-4.4-1.9-4.4-5c0-3 2-4.8 4.4-4.8c2.4 0 4.5 1.8 4.5 4.9zm31.3 6.6h2.1v-7.8c0-3.7-2.3-5.6-5.3-5.6c-2 0-3.9 1-4.6 2.9c-0.9-2-2.7-2.9-4.9-2.9c-1.7 0-3.3 0.7-4.1 2.1v-1.9h-2.2v13.2h2.2v-7.3c0-2.8 1.5-4.2 3.7-4.2c2.2 0 3.6 1.3 3.6 4v7.5h2.2v-7.3c0-2.8 1.5-4.2 3.7-4.2c2.1 0 3.6 1.3 3.6 4zm5.7 0h2.2v-13.1h-2.2zm1.1-15.3c0.8 0 1.5-0.7 1.5-1.5c0-0.8-0.7-1.5-1.5-1.5c-0.8 0-1.4 0.7-1.4 1.5c0 0.8 0.6 1.5 1.4 1.5zm14.4 15.3h2.2v-7.8c0-3.7-2.3-5.6-5.4-5.6c-1.7 0-3.3 0.7-4.2 2.1v-1.9h-2.2v13.2h2.2v-7.3c0-2.8 1.5-4.2 3.8-4.2c2.2 0 3.6 1.4 3.6 4zm5.8 0h2.2v-13.1h-2.2zm1.1-15.3c0.8 0 1.5-0.6 1.5-1.5c0-0.8-0.7-1.5-1.5-1.5c-0.8 0-1.5 0.7-1.5 1.5c0 0.9 0.7 1.5 1.5 1.5zm14.4 15.3h2.2v-7.8c0-3.7-2.4-5.6-5.4-5.6c-1.8 0-3.4 0.7-4.2 2.1v-1.9h-2.2v13.2h2.2v-7.3c0-2.8 1.5-4.2 3.7-4.2c2.2 0 3.7 1.4 3.7 4zm4.9-6.6c0 4.1 2.7 6.9 6.3 6.9c2.4 0 4.1-1.3 4.9-2.7v2.7c0 2.8-1.8 4.3-4.1 4.3c-2.2 0-3.7-1-4.2-2.6h-2.2c0.5 2.8 2.9 4.5 6.4 4.5c3.9 0 6.3-2.5 6.3-6.2v-13.4h-2.2v2.4c-0.8-1.4-2.5-2.6-4.9-2.6c-3.6 0-6.3 2.6-6.3 6.7zm11.2 0c0 3.1-2.1 4.9-4.5 4.9c-2.4 0-4.4-1.8-4.4-4.9c0-3.1 2-4.8 4.4-4.8c2.4 0 4.5 1.8 4.5 4.8zm4 10.1h1.4l2.7-6.5h-2.4zm22.5-7c-0.1-4.7-7.7-3-7.7-6.1c0-1.1 1-1.8 2.6-1.8c1.7 0 2.7 0.9 2.8 2.3h2.2c-0.1-2.6-2-4.2-4.9-4.2c-3 0-4.9 1.7-4.9 3.7c0 4.9 7.8 3.2 7.8 6.1c0 1.1-1 2-2.7 2c-1.8 0-3-1-3.1-2.3h-2.2c0.1 2.4 2.3 4.1 5.3 4.1c2.9 0 4.8-1.6 4.8-3.8zm3.6 0c0 2.6 1.3 3.6 3.6 3.6h2v-1.9h-1.6c-1.3 0-1.8-0.4-1.8-1.7v-7.8h3.4v-1.8h-3.4v-3.3h-2.2v3.3h-1.7v1.8h1.7zm7.4-3c0 4.1 2.7 6.9 6.2 6.9c2.5 0 4.2-1.3 5-2.7v2.4h2.2v-13.1h-2.2v2.4c-0.8-1.4-2.5-2.6-4.9-2.6c-3.6 0-6.3 2.6-6.3 6.7zm11.2 0c0 3.1-2.1 4.9-4.5 4.9c-2.4 0-4.4-1.8-4.4-4.9c0-3.1 2-4.8 4.4-4.8c2.4 0 4.5 1.8 4.5 4.8zm6.4 3c0 2.7 1.3 3.6 3.6 3.6h2v-1.8h-1.6c-1.4 0-1.9-0.5-1.9-1.8v-7.7h3.5v-1.8h-3.5v-3.3h-2.1v3.3h-1.8v1.8h1.8zm8.2 3.6h2.2v-13.2h-2.2zm1.1-15.3c0.8 0 1.5-0.6 1.5-1.4c0-0.9-0.7-1.5-1.5-1.5c-0.8 0-1.5 0.6-1.5 1.5c0 0.8 0.7 1.4 1.5 1.4zm14.3 11.8c-0.1-4.7-7.8-3-7.8-6.2c0-1 1-1.8 2.6-1.8c1.8 0 2.8 1 2.9 2.3h2.1c-0.1-2.6-2-4.1-4.9-4.1c-2.9 0-4.8 1.6-4.8 3.6c0 4.9 7.7 3.2 7.7 6.2c0 1-0.9 1.9-2.7 1.9c-1.8 0-2.9-1-3.1-2.2h-2.2c0.1 2.4 2.3 4.1 5.4 4.1c2.9 0 4.8-1.7 4.8-3.8zm3.5-0.1c0 2.7 1.3 3.6 3.7 3.6h1.9v-1.8h-1.6c-1.3 0-1.8-0.5-1.8-1.8v-7.7h3.4v-1.8h-3.4v-3.3h-2.2v3.3h-1.7v1.8h1.7zm8.3 3.6h2.2v-13.2h-2.2zm1.1-15.3c0.8 0 1.4-0.6 1.4-1.4c0-0.9-0.6-1.5-1.4-1.5c-0.8 0-1.5 0.6-1.5 1.5c0 0.8 0.7 1.4 1.5 1.4zm4 8.7c0 4.2 2.6 6.8 6.4 6.8c3.2 0 5.4-1.8 6-4.4h-2.3c-0.5 1.7-1.8 2.6-3.7 2.6c-2.4 0-4.2-1.7-4.2-5c0-3.2 1.8-4.9 4.2-4.9c1.9 0 3.2 1 3.7 2.6h2.3c-0.6-2.8-2.8-4.4-6-4.4c-3.8 0-6.4 2.6-6.4 6.7zm14.5 0c0 4.1 2.7 6.8 6.2 6.8c2.5 0 4.2-1.2 5-2.6v2.4h2.2v-13.1h-2.2v2.4c-0.8-1.4-2.5-2.6-4.9-2.6c-3.6 0-6.3 2.6-6.3 6.7zm11.2 0c0 3.1-2.1 4.9-4.5 4.9c-2.4 0-4.4-1.8-4.4-4.9c0-3.1 2-4.8 4.4-4.8c2.4 0 4.5 1.8 4.5 4.8zm5.9 6.6h2.2v-17.7h-2.2zm31.3 0h2.1v-7.8c0-3.7-2.3-5.6-5.3-5.6c-2 0-3.9 1-4.7 2.9c-0.8-2-2.6-2.9-4.8-2.9c-1.7 0-3.3 0.7-4.1 2.1v-1.9h-2.2v13.2h2.2v-7.3c0-2.8 1.5-4.2 3.7-4.2c2.1 0 3.6 1.3 3.6 4v7.5h2.1v-7.3c0-2.8 1.6-4.2 3.8-4.2c2.1 0 3.6 1.3 3.6 4zm18.2-6.6c0-4.1-2.9-6.7-6.7-6.7c-3.7 0-6.6 2.6-6.6 6.7c0 4.2 2.8 6.8 6.5 6.8c3.8 0 6.8-2.6 6.8-6.8zm-11.1 0c0-3.3 2.1-4.8 4.4-4.8c2.3 0 4.5 1.5 4.5 4.8c0 3.4-2.3 4.9-4.6 4.9c-2.2 0-4.3-1.5-4.3-4.9zm13.1 0c0 4.1 2.8 6.8 6.3 6.8c2.4 0 4.1-1.2 4.9-2.6v2.4h2.2v-17.7h-2.2v6.9c-0.9-1.5-2.8-2.5-4.9-2.5c-3.5 0-6.3 2.6-6.3 6.7zm11.2 0c0 3.1-2.1 4.9-4.5 4.9c-2.4 0-4.4-1.8-4.4-4.9c0-3.1 2-4.8 4.4-4.8c2.4 0 4.5 1.8 4.5 4.8zm11.5-4.9c2.2 0 4.2 1.4 4.1 4h-8.3c0.3-2.6 2-4 4.2-4zm6.1 7.5h-2.3c-0.5 1.4-1.8 2.4-3.7 2.4c-2.3 0-4.1-1.5-4.3-4.1h10.5c0.1-0.5 0.1-0.9 0.1-1.3c0-3.6-2.5-6.3-6.3-6.3c-3.9 0-6.5 2.6-6.5 6.7c0 4.2 2.7 6.8 6.5 6.8c3.2 0 5.4-1.8 6-4.2zm3.2 4h2.2v-17.7h-2.2zm15.3-3.6c-0.1-4.7-7.7-3-7.7-6.1c0-1.1 1-1.8 2.6-1.8c1.7 0 2.7 0.9 2.8 2.2h2.2c-0.1-2.5-2.1-4.1-5-4.1c-2.9 0-4.8 1.7-4.8 3.7c0 4.9 7.8 3.2 7.8 6.1c0 1.1-1 1.9-2.7 1.9c-1.8 0-3-0.9-3.1-2.2h-2.2c0.1 2.4 2.3 4.1 5.3 4.1c2.9 0 4.8-1.6 4.8-3.8zm1.2 7h1.5l2.7-6.5h-2.4zm-494.6 19c0 4.1 2.7 6.8 6.3 6.8c2.4 0 4.1-1.2 4.9-2.6v2.4h2.2v-13.1h-2.2v2.4c-0.8-1.4-2.5-2.7-4.9-2.7c-3.6 0-6.3 2.7-6.3 6.8zm11.2 0c0 3.1-2.1 4.9-4.5 4.9c-2.4 0-4.4-1.8-4.4-4.9c0-3.1 2-4.9 4.4-4.9c2.4 0 4.5 1.9 4.5 4.9zm15.5 6.6h2.2v-7.7c0-3.8-2.4-5.7-5.4-5.7c-1.8 0-3.4 0.8-4.2 2.1v-1.8h-2.2v13.1h2.2v-7.3c0-2.8 1.5-4.2 3.7-4.2c2.2 0 3.7 1.4 3.7 4.1zm4.9-6.6c0 4 2.7 6.8 6.3 6.8c2.4 0 4.1-1.2 4.9-2.7v2.5h2.2v-17.8h-2.2v7c-1-1.5-2.9-2.6-4.9-2.6c-3.6 0-6.3 2.6-6.3 6.8zm11.2 0c0 3.1-2.1 4.9-4.5 4.9c-2.4 0-4.4-1.9-4.4-4.9c0-3.1 2-4.9 4.4-4.9c2.4 0 4.5 1.8 4.5 4.9zm31.3 6.6h2.1v-7.8c0-3.7-2.3-5.6-5.3-5.6c-2 0-3.9 1-4.7 2.9c-0.8-2-2.6-2.9-4.8-2.9c-1.7 0-3.3 0.7-4.1 2.1v-1.9h-2.2v13.2h2.2v-7.3c0-2.8 1.5-4.2 3.7-4.2c2.1 0 3.6 1.3 3.6 4v7.5h2.1v-7.3c0-2.8 1.5-4.2 3.8-4.2c2.1 0 3.6 1.3 3.6 4zm4.9-6.6c0 4.1 2.7 6.9 6.2 6.9c2.4 0 4.1-1.3 4.9-2.7v2.4h2.2v-13.1h-2.2v2.4c-0.8-1.4-2.4-2.6-4.9-2.6c-3.5 0-6.2 2.6-6.2 6.7zm11.1 0c0 3.1-2.1 4.9-4.5 4.9c-2.4 0-4.4-1.8-4.4-4.9c0-3.1 2-4.8 4.4-4.8c2.4 0 4.5 1.8 4.5 4.8zm5.1 0c0 4.2 2.7 6.9 6.4 6.9c3.3 0 5.4-1.9 6.1-4.5h-2.4c-0.5 1.7-1.8 2.6-3.7 2.6c-2.4 0-4.2-1.7-4.2-5c0-3.2 1.8-4.9 4.2-4.9c1.9 0 3.3 1 3.7 2.6h2.4c-0.7-2.8-2.8-4.4-6.1-4.4c-3.7 0-6.4 2.6-6.4 6.7zm15.4 6.6h2.2v-7.2c0-2.9 1.5-4.3 3.7-4.3c2.2 0 3.7 1.4 3.7 4.1v7.4h2.2v-7.7c0-3.8-2.4-5.7-5.3-5.7c-1.8 0-3.5 0.8-4.3 2.2v-6.5h-2.2zm15.3 0h2.2v-13.2h-2.2zm1.2-15.3c0.8 0 1.4-0.6 1.4-1.5c0-0.8-0.6-1.4-1.4-1.4c-0.9 0-1.5 0.6-1.5 1.4c0 0.9 0.6 1.5 1.5 1.5zm14.4 15.3h2.1v-7.7c0-3.8-2.3-5.7-5.3-5.7c-1.8 0-3.4 0.8-4.3 2.1v-1.8h-2.2v13.1h2.2v-7.2c0-2.9 1.6-4.3 3.8-4.3c2.2 0 3.7 1.4 3.7 4.1zm11.3-11.5c2.3 0 4.2 1.4 4.1 3.9h-8.3c0.3-2.5 2.1-3.9 4.2-3.9zm6.1 7.4h-2.3c-0.5 1.4-1.7 2.5-3.7 2.5c-2.2 0-4.1-1.5-4.3-4.2h10.5c0.1-0.4 0.1-0.8 0.1-1.3c0-3.6-2.5-6.3-6.3-6.3c-3.8 0-6.5 2.6-6.5 6.8c0 4.2 2.7 6.8 6.5 6.8c3.3 0 5.4-1.9 6-4.3zm9.6 4.1h2.2v-17.8h-2.2zm11.5-11.5c2.2 0 4.2 1.4 4.1 4h-8.3c0.3-2.6 2.1-4 4.2-4zm6.1 7.5h-2.3c-0.5 1.4-1.7 2.4-3.7 2.4c-2.2 0-4.1-1.5-4.3-4.1h10.5c0.1-0.5 0.1-0.9 0.1-1.4c0-3.6-2.5-6.2-6.3-6.2c-3.9 0-6.5 2.6-6.5 6.7c0 4.2 2.7 6.8 6.5 6.8c3.2 0 5.4-1.8 6-4.2zm2.4-2.6c0 4.1 2.7 6.8 6.2 6.8c2.4 0 4.1-1.2 4.9-2.6v2.4h2.2v-13.1h-2.2v2.4c-0.8-1.4-2.5-2.6-4.9-2.6c-3.5 0-6.2 2.6-6.2 6.7zm11.1 0c0 3.1-2.1 4.9-4.5 4.9c-2.4 0-4.4-1.8-4.4-4.9c0-3.1 2-4.8 4.4-4.8c2.4 0 4.5 1.8 4.5 4.8zm8.1-0.5c0-3.1 1.6-4 3.7-4h0.5v-2.3c-2.1 0-3.5 0.9-4.2 2.4v-2.1h-2.2v13.1h2.2zm16.4 7.2h2.1v-7.8c0-3.7-2.3-5.6-5.3-5.6c-1.8 0-3.4 0.7-4.3 2.1v-1.9h-2.1v13.2h2.1v-7.3c0-2.8 1.6-4.2 3.8-4.2c2.2 0 3.7 1.3 3.7 4zm5.7 0h2.2v-13.1h-2.2zm1.1-15.3c0.8 0 1.5-0.7 1.5-1.5c0-0.8-0.7-1.5-1.5-1.5c-0.8 0-1.4 0.7-1.4 1.5c0 0.8 0.6 1.5 1.4 1.5zm14.4 15.3h2.2v-7.8c0-3.7-2.3-5.6-5.4-5.6c-1.8 0-3.3 0.7-4.2 2.1v-1.9h-2.2v13.2h2.2v-7.3c0-2.8 1.5-4.2 3.8-4.2c2.2 0 3.6 1.4 3.6 4zm5-6.6c0 4.1 2.7 6.9 6.2 6.9c2.4 0 4.1-1.3 4.9-2.7v2.7c0 2.8-1.8 4.3-4.1 4.3c-2.1 0-3.7-1.1-4.2-2.6h-2.1c0.4 2.8 2.9 4.5 6.3 4.5c3.9 0 6.3-2.5 6.3-6.2v-13.4h-2.2v2.4c-0.8-1.4-2.5-2.6-4.9-2.6c-3.5 0-6.2 2.6-6.2 6.7zm11.1 0c0 3.1-2.1 4.9-4.5 4.9c-2.4 0-4.4-1.8-4.4-4.9c0-3.1 2-4.8 4.4-4.8c2.4 0 4.5 1.8 4.5 4.8z"/><rect class="G" x="1151" y="590" width="600" height="400" rx="64"></rect><path  d="m1264.5 637.6v-5.6h2.9c2.2 0 3.1 1 3.1 2.8c0 1.7-0.9 2.8-3.1 2.8zm11.7-2.8c0-4.2-2.8-7.3-8.3-7.3h-8.8v22.5h5.4v-8.1h3.4c5.8 0 8.3-3.4 8.3-7.1zm14.7 0c0 1.8-1 2.8-3 2.8h-3.4v-5.5h3.4c2 0 3 1.1 3 2.7zm-11.9-7.3v22.5h5.5v-8.5h1.3l4.7 8.5h6.2l-5.2-8.9c3.4-1 5-3.7 5-6.5c0-3.9-2.8-7.1-8.3-7.1zm34.6 0h-13.7v22.5h13.7v-4.4h-8.3v-4.9h7.4v-4.2h-7.4v-4.6h8.3zm19.9 15.8c0-7.5-11.1-5.8-11.1-9.7c0-1.4 1-2 2.3-2c1.5 0 2.5 0.9 2.6 2.3h5.9c-0.2-4.3-3.5-6.7-8.4-6.7c-4.7 0-8.2 2.4-8.2 6.6c-0.1 8 11.2 5.8 11.2 9.9c0 1.3-1 2.1-2.6 2.1c-1.6 0-2.7-0.8-2.8-2.5h-5.9c0.2 4.5 4 6.9 8.8 6.9c5.3 0 8.2-3.1 8.2-6.9zm2.4-4.6c0 6.7 4.7 11.4 11.3 11.4c5.4 0 9.4-2.9 10.7-7.8h-6c-1 1.9-2.6 2.9-4.7 2.9c-3.4 0-5.7-2.5-5.7-6.5c0-3.9 2.3-6.4 5.7-6.4c2.1 0 3.7 0.9 4.7 2.8h6c-1.3-4.8-5.3-7.8-10.7-7.8c-6.6 0-11.3 4.7-11.3 11.4zm37.2-3.9c0 1.8-0.9 2.8-3 2.8h-3.4v-5.5h3.4c2.1 0 3 1.1 3 2.7zm-11.8-7.3v22.5h5.4v-8.5h1.3l4.7 8.5h6.2l-5.2-8.9c3.5-1 5-3.7 5-6.5c0-3.9-2.8-7.1-8.3-7.1zm20.9 22.5h5.5v-22.5h-5.5zm14.9-12.4v-5.6h3c2.2 0 3.1 1.1 3.1 2.8c0 1.7-0.9 2.8-3.1 2.8zm11.6-2.8c0-4.1-2.7-7.2-8.2-7.2h-8.9v22.4h5.5v-8h3.4c5.7 0 8.2-3.5 8.2-7.2zm1.7-2.9h5.9v18.1h5.5v-18.1h5.9v-4.3h-17.3zm20.1 18h5.5v-22.4h-5.5zm19.1-5.5l-5.5-17h-5.9l8 22.5h6.9l7.9-22.5h-5.8zm27.5-17h-13.8v22.5h13.8v-4.4h-8.3v-4.9h7.3v-4.2h-7.3v-4.6h8.3zm25.6 22.5h5.8l-8.1-22.5h-6.4l-8.1 22.5h5.7l1.4-4h8.4zm-2.8-8.2h-5.5l2.7-8.2zm25.7-14.3v14l-9.2-14h-5.5v22.5h5.5v-13.9l9.2 13.9h5.4v-22.5zm24.8 22.5h5.8l-8.1-22.5h-6.4l-8.1 22.5h5.7l1.4-4h8.4zm-2.8-8.2h-5.5l2.7-8.2zm11-14.3v22.5h12.7v-4.2h-7.2v-18.3zm21.3 15.1v7.4h5.5v-7.4l7.7-15.1h-6.1l-4.3 9.5l-4.4-9.5h-6.2zm31.8 0.8c0-7.5-11.1-5.8-11.1-9.7c0-1.4 1-2.1 2.3-2c1.5 0 2.5 0.9 2.6 2.3h5.9c-0.2-4.3-3.5-6.7-8.4-6.7c-4.7 0-8.2 2.4-8.2 6.6c-0.1 8 11.2 5.7 11.2 9.9c0 1.3-1.1 2.1-2.7 2.1c-1.5 0-2.6-0.8-2.7-2.5h-5.9c0.2 4.5 4 6.9 8.8 6.9c5.2 0 8.2-3.1 8.2-6.9zm3.4 6.7h5.4v-22.5h-5.4zm25.7-6.7c0-7.5-11.1-5.7-11.1-9.6c0-1.5 1-2.1 2.3-2.1c1.5 0 2.5 0.9 2.6 2.3h5.9c-0.2-4.2-3.5-6.7-8.4-6.7c-4.7 0-8.2 2.4-8.2 6.6c0 8 11.2 5.8 11.2 9.9c0 1.3-1 2.1-2.6 2.1c-1.6 0-2.7-0.8-2.8-2.5h-5.8c0.1 4.5 3.9 6.9 8.7 6.9c5.3 0 8.2-3.1 8.2-6.9z"/><path  d="m1328.2 846h2.5l4-13.5l3.9 13.5h2.4l4.9-16.7h-2.4l-3.7 14.1l-3.8-14.1h-2.4l-4.1 14.2l-3.6-14.2h-2.3zm30.7-0.1h2.2v-16.7h-2.2v7.4h-8.5v-7.4h-2.2v16.7h2.2v-7.5h8.5zm17.1 0h2.3l-6-16.7h-2.5l-6.1 16.7h2.3l1.4-3.8h7.3zm-2-5.5h-6.1l3.1-8.4zm5.9-9.5h4.5v15h2.2v-15h4.6v-1.7h-11.3zm24.5 8.6v6.3h2.1v-6.3l5.5-10.4h-2.4l-4.2 8.5l-4.1-8.5h-2.4zm25.9-2.1c0-5-3.7-8.5-8.4-8.5c-4.7 0-8.4 3.5-8.4 8.5c0 5 3.7 8.6 8.4 8.6c4.7 0 8.4-3.6 8.4-8.6zm-14.6 0c0-4.1 2.7-6.6 6.2-6.6c3.5 0 6.2 2.5 6.2 6.6c0 4.1-2.7 6.7-6.2 6.7c-3.5 0-6.2-2.6-6.2-6.7zm17.4 2.2c0 4.4 2.9 6.4 6.3 6.4c3.5 0 6.3-2 6.3-6.4v-10.5h-2.1v10.6c0 3-1.7 4.4-4.2 4.4c-2.4 0-4.1-1.4-4.1-4.4v-10.6h-2.2zm33.6 1.6c0-6.2-9.1-3.5-9.1-7.8c0-1.8 1.5-2.8 3.3-2.7c2 0 3.1 1.3 3.2 2.4h2.4c-0.3-2.5-2.4-4.3-5.5-4.3c-3.4 0-5.6 1.9-5.6 4.6c0 6.2 9.1 3.4 9.1 7.9c0 1.6-1.3 2.8-3.4 2.8c-2.3 0-3.3-1.4-3.5-2.8h-2.3c0.1 2.7 2.4 4.6 5.8 4.6c3.6 0 5.6-2.3 5.6-4.7zm13.9 4.5h2.2v-16.7h-2.2v7.4h-8.5v-7.4h-2.2v16.7h2.2v-7.5h8.5zm21.8-8.4c0-5-3.6-8.6-8.4-8.6c-4.7 0-8.4 3.6-8.4 8.6c0 5 3.7 8.5 8.4 8.5c4.8 0 8.4-3.5 8.4-8.5zm-14.5 0c0-4.1 2.6-6.7 6.1-6.7c3.6 0 6.2 2.6 6.2 6.7c0 4.1-2.6 6.6-6.2 6.6c-3.5 0-6.1-2.5-6.1-6.6zm17.4 2.2c0 4.3 2.8 6.3 6.3 6.3c3.4 0 6.3-2 6.3-6.3v-10.6h-2.2v10.6c0 3.1-1.6 4.4-4.1 4.4c-2.5 0-4.1-1.3-4.1-4.4v-10.6h-2.2zm21.4-10.5h-5.2v16.7h5.2c5.5 0 8.9-3.1 8.9-8.3c0-5.2-3.4-8.4-8.9-8.4zm-3 14.9v-13.2h3c4.4 0 6.7 2.6 6.7 6.7c0 4.1-2.3 6.5-6.7 6.5zm26.4-14.9h-5.2v16.7h5.2c5.5 0 8.9-3.1 8.9-8.3c0-5.2-3.4-8.4-8.9-8.4zm-3 14.9v-13.2h3c4.4 0 6.7 2.6 6.7 6.7c0 4.1-2.3 6.5-6.7 6.5zm30.8-6.6c0-5-3.7-8.5-8.4-8.5c-4.7 0-8.4 3.5-8.4 8.5c0 5 3.7 8.6 8.4 8.6c4.7 0 8.4-3.6 8.4-8.6zm-14.6 0c0-4.1 2.7-6.6 6.2-6.6c3.5 0 6.2 2.5 6.2 6.6c0 4.1-2.7 6.7-6.2 6.7c-3.5 0-6.2-2.6-6.2-6.7z"/><path  d="m1223.8 908h2.2v-16.7h-2.2zm6.4-3.6c0 2.6 1.4 3.6 3.7 3.6h1.9v-1.9h-1.6c-1.3 0-1.8-0.4-1.8-1.7v-7.8h3.4v-1.8h-3.4v-3.3h-2.2v3.3h-1.7v1.8h1.7zm7.6-10.7h1.5l0.3-4.8h-2.1zm13.9 10.8c0-4.7-7.7-3-7.7-6.2c0-1 1-1.8 2.6-1.8c1.7 0 2.7 1 2.8 2.3h2.2c-0.1-2.6-2-4.1-4.9-4.1c-3 0-4.9 1.6-4.9 3.6c0 4.9 7.8 3.2 7.8 6.2c0 1-0.9 1.9-2.7 1.9c-1.8 0-3-0.9-3.1-2.2h-2.2c0.1 2.4 2.3 4.1 5.3 4.1c3 0 4.8-1.7 4.8-3.8zm10-0.1c0 2.7 1.3 3.6 3.7 3.6h1.9v-1.8h-1.6c-1.3 0-1.8-0.5-1.8-1.8v-7.7h3.4v-1.8h-3.4v-3.3h-2.2v3.3h-1.7v1.8h1.7zm8.3 3.6h2.1v-7.3c0-2.8 1.6-4.2 3.8-4.2c2.2 0 3.7 1.4 3.7 4.1v7.4h2.1v-7.8c0-3.7-2.3-5.6-5.2-5.6c-1.9 0-3.5 0.7-4.4 2.1v-6.5h-2.1zm20.9-11.5c2.3 0 4.2 1.4 4.2 4h-8.3c0.2-2.6 2-4 4.1-4zm6.2 7.5h-2.4c-0.5 1.4-1.7 2.4-3.7 2.4c-2.2 0-4.1-1.5-4.3-4.1h10.6c0-0.5 0-0.9 0-1.3c0-3.6-2.5-6.3-6.3-6.3c-3.8 0-6.5 2.6-6.5 6.7c0 4.2 2.8 6.8 6.5 6.8c3.3 0 5.4-1.8 6.1-4.2zm28.5 4h2.2v-7.7c0-3.8-2.4-5.7-5.4-5.7c-2 0-3.9 1.1-4.6 3c-0.9-2-2.7-3-4.9-3c-1.7 0-3.2 0.8-4.1 2.2v-1.9h-2.2v13.1h2.2v-7.2c0-2.8 1.5-4.3 3.7-4.3c2.2 0 3.6 1.4 3.6 4.1v7.4h2.2v-7.2c0-2.8 1.5-4.3 3.7-4.3c2.2 0 3.6 1.4 3.6 4.1zm18.2-6.6c0-4.2-2.9-6.8-6.6-6.8c-3.8 0-6.7 2.6-6.7 6.8c0 4.2 2.8 6.8 6.6 6.8c3.7 0 6.7-2.6 6.7-6.8zm-11.1 0c0-3.3 2.1-4.9 4.4-4.9c2.3 0 4.5 1.6 4.5 4.9c0 3.3-2.3 4.9-4.5 4.9c-2.3 0-4.4-1.6-4.4-4.9zm23.4 3c0-4.7-7.7-3-7.7-6.1c0-1.1 1-1.8 2.6-1.8c1.7 0 2.7 0.9 2.8 2.3h2.2c-0.1-2.6-2-4.2-4.9-4.2c-3 0-4.9 1.7-4.9 3.7c0 4.9 7.8 3.2 7.8 6.1c0 1.1-0.9 2-2.7 2c-1.8 0-3-1-3.1-2.3h-2.2c0.1 2.4 2.3 4.1 5.3 4.1c3 0 4.8-1.6 4.8-3.8zm3.6 0c0 2.6 1.3 3.6 3.6 3.6h2v-1.9h-1.6c-1.3 0-1.8-0.4-1.8-1.7v-7.8h3.4v-1.8h-3.4v-3.3h-2.2v3.3h-1.7v1.8h1.7zm13.8-3c0 4.1 2.8 6.9 6.3 6.9c2.4 0 4.1-1.3 4.9-2.7v2.4h2.2v-13.1h-2.2v2.4c-0.8-1.4-2.5-2.6-4.9-2.6c-3.5 0-6.3 2.6-6.3 6.7zm11.2 0c0 3.1-2.1 4.9-4.5 4.9c-2.4 0-4.4-1.8-4.4-4.9c0-3.1 2-4.8 4.4-4.8c2.4 0 4.5 1.8 4.5 4.8zm5.1 0c0 4.1 2.7 6.9 6.2 6.9c2.4 0 4.1-1.3 4.9-2.7v2.4h2.2v-17.7h-2.2v6.9c-0.9-1.5-2.8-2.5-4.9-2.5c-3.5 0-6.2 2.6-6.2 6.7zm11.1 0c0 3.1-2.1 4.9-4.5 4.9c-2.4 0-4.4-1.8-4.4-4.9c0-3.1 2-4.8 4.4-4.8c2.4 0 4.5 1.8 4.5 4.8zm4.4-6.5l5.1 13.1h2.6l5.1-13.1h-2.3l-4.1 11.1l-4.1-11.1zm14.2 6.5c0 4.1 2.7 6.9 6.2 6.9c2.5 0 4.2-1.3 4.9-2.7v2.4h2.3v-13.1h-2.3v2.4c-0.7-1.4-2.4-2.6-4.8-2.6c-3.6 0-6.3 2.6-6.3 6.7zm11.1 0c0 3.1-2 4.9-4.4 4.9c-2.4 0-4.5-1.8-4.5-4.9c0-3.1 2.1-4.8 4.5-4.8c2.4 0 4.4 1.8 4.4 4.8zm15.6 6.6h2.1v-7.7c0-3.8-2.3-5.7-5.3-5.7c-1.8 0-3.4 0.8-4.3 2.2v-1.9h-2.1v13.1h2.1v-7.2c0-2.9 1.6-4.3 3.8-4.3c2.2 0 3.7 1.4 3.7 4.1zm4.9-6.6c0 4.2 2.7 6.8 6.4 6.8c3.3 0 5.4-1.8 6.1-4.4h-2.4c-0.5 1.6-1.8 2.6-3.7 2.6c-2.4 0-4.2-1.7-4.2-5c0-3.2 1.8-4.9 4.2-4.9c1.9 0 3.3 1 3.7 2.6h2.4c-0.7-2.8-2.8-4.5-6.1-4.5c-3.7 0-6.4 2.7-6.4 6.8zm21-4.9c2.2 0 4.1 1.4 4.1 4h-8.3c0.3-2.6 2-4 4.2-4zm6.1 7.4h-2.3c-0.5 1.5-1.8 2.5-3.7 2.5c-2.3 0-4.1-1.5-4.3-4.2h10.5c0.1-0.4 0.1-0.8 0.1-1.3c0-3.6-2.5-6.3-6.3-6.3c-3.9 0-6.5 2.6-6.5 6.8c0 4.2 2.7 6.8 6.5 6.8c3.2 0 5.3-1.9 6-4.3zm2.3-2.5c0 4.1 2.8 6.8 6.3 6.8c2.4 0 4.1-1.2 4.9-2.7v2.5h2.2v-17.8h-2.2v7c-0.9-1.5-2.8-2.6-4.9-2.6c-3.5 0-6.3 2.7-6.3 6.8zm11.2 0c0 3.1-2.1 4.9-4.5 4.9c-2.4 0-4.4-1.8-4.4-4.9c0-3.1 2-4.9 4.4-4.9c2.4 0 4.5 1.9 4.5 4.9zm21.7 3c0-4.7-7.7-3-7.7-6.1c0-1.1 1-1.8 2.6-1.8c1.7 0 2.7 0.9 2.8 2.3h2.2c-0.1-2.6-2-4.2-4.9-4.2c-3 0-4.9 1.7-4.9 3.7c0 4.9 7.8 3.2 7.8 6.1c0 1.1-0.9 2-2.7 2c-1.8 0-3-1-3.1-2.3h-2.2c0.1 2.4 2.3 4.1 5.3 4.1c3 0 4.8-1.6 4.8-3.8zm3.6 0c0 2.6 1.3 3.6 3.6 3.6h2v-1.8h-1.6c-1.3 0-1.8-0.5-1.8-1.8v-7.8h3.4v-1.8h-3.4v-3.3h-2.2v3.3h-1.7v1.8h1.7zm7.4-3c0 4.1 2.8 6.9 6.3 6.9c2.4 0 4.1-1.3 4.9-2.7v2.4h2.2v-13.1h-2.2v2.4c-0.8-1.4-2.5-2.6-4.9-2.6c-3.5 0-6.3 2.6-6.3 6.7zm11.2 0c0 3.1-2.1 4.9-4.5 4.9c-2.4 0-4.4-1.8-4.4-4.9c0-3.1 2-4.8 4.4-4.8c2.4 0 4.5 1.8 4.5 4.8zm5.1 0c0 4.1 2.7 6.9 6.2 6.9c2.4 0 4.1-1.3 4.9-2.7v2.7c0 2.8-1.8 4.3-4.1 4.3c-2.1 0-3.7-1-4.2-2.6h-2.1c0.4 2.8 2.9 4.5 6.3 4.5c3.9 0 6.3-2.5 6.3-6.2v-13.4h-2.2v2.4c-0.8-1.4-2.5-2.6-4.9-2.6c-3.5 0-6.2 2.6-6.2 6.7zm11.1 0c0 3.1-2.1 4.9-4.5 4.9c-2.4 0-4.4-1.8-4.4-4.9c0-3.1 2-4.8 4.4-4.8c2.4 0 4.5 1.8 4.5 4.8zm11.5-4.9c2.3 0 4.2 1.4 4.1 4h-8.3c0.3-2.6 2.1-4 4.2-4zm6.1 7.5h-2.3c-0.5 1.4-1.7 2.4-3.7 2.4c-2.2 0-4.1-1.4-4.3-4.1h10.5c0.1-0.5 0.1-0.9 0.1-1.3c0-3.6-2.5-6.3-6.3-6.3c-3.8 0-6.5 2.6-6.5 6.7c0 4.2 2.7 6.9 6.5 6.9c3.3 0 5.4-1.9 6-4.3zm8.8-2.6c0 4.1 2.7 6.9 6.2 6.9c2.4 0 4.1-1.3 4.9-2.7v2.4h2.2v-13.1h-2.2v2.4c-0.8-1.4-2.4-2.6-4.9-2.6c-3.5 0-6.2 2.6-6.2 6.7zm11.1 0c0 3.1-2.1 4.9-4.5 4.9c-2.4 0-4.4-1.8-4.4-4.9c0-3.1 2-4.8 4.4-4.8c2.4 0 4.5 1.8 4.5 4.8zm15.5 6.6h2.2v-7.7c0-3.8-2.3-5.6-5.4-5.6c-1.8 0-3.3 0.7-4.2 2.1v-1.9h-2.2v13.1h2.2v-7.2c0-2.9 1.5-4.2 3.8-4.2c2.2 0 3.6 1.3 3.6 4zm5-6.6c0 4.1 2.7 6.8 6.2 6.8c2.4 0 4.1-1.2 4.9-2.7v2.5h2.2v-17.8h-2.2v7c-0.9-1.5-2.8-2.6-4.9-2.6c-3.5 0-6.2 2.7-6.2 6.8zm11.1 0c0 3.1-2.1 4.9-4.5 4.9c-2.4 0-4.4-1.8-4.4-4.9c0-3.1 2-4.9 4.4-4.9c2.4 0 4.5 1.9 4.5 4.9zm12.8 3c0 2.6 1.3 3.6 3.6 3.6h2v-1.8h-1.6c-1.3 0-1.8-0.5-1.8-1.8v-7.7h3.4v-1.8h-3.4v-3.4h-2.2v3.4h-1.7v1.8h1.7zm13.8-8c2.3 0 4.2 1.5 4.2 4h-8.3c0.2-2.5 2-4 4.1-4zm6.2 7.5h-2.4c-0.5 1.4-1.7 2.4-3.7 2.4c-2.2 0-4.1-1.4-4.2-4.1h10.5c0-0.5 0-0.8 0-1.3c0-3.6-2.5-6.3-6.3-6.3c-3.8 0-6.5 2.6-6.5 6.8c0 4.1 2.8 6.8 6.5 6.8c3.3 0 5.4-1.9 6.1-4.3zm3.1 4.1h2.2v-17.8h-2.2zm5.9 0h2.2v-17.8h-2.2zm15.4-3.5c-0.1-4.7-7.7-3-7.7-6.2c0-1 0.9-1.8 2.5-1.8c1.8 0 2.8 1 2.9 2.3h2.2c-0.2-2.6-2.1-4.1-5-4.1c-2.9 0-4.8 1.6-4.8 3.6c0 4.9 7.8 3.2 7.8 6.2c0 1-1 1.9-2.7 1.9c-1.9 0-3-1-3.1-2.2h-2.3c0.2 2.4 2.3 4.1 5.4 4.1c2.9 0 4.8-1.7 4.8-3.8zm-451.6 32.5h2.2l3.2-10.4l3.1 10.4h2.3l4.1-13.1h-2.2l-2.9 11l-3.2-11h-2.3l-3.2 11l-3-11h-2.3zm17.1 0h2.2v-7.3c0-2.8 1.6-4.2 3.8-4.2c2.2 0 3.7 1.4 3.7 4v7.5h2.1v-7.8c0-3.7-2.3-5.6-5.2-5.6c-1.9 0-3.5 0.7-4.4 2.1v-6.5h-2.2zm14.6-6.6c0 4.1 2.7 6.8 6.2 6.8c2.4 0 4.1-1.2 4.9-2.6v2.4h2.2v-13.1h-2.2v2.4c-0.7-1.4-2.4-2.6-4.9-2.6c-3.5 0-6.2 2.6-6.2 6.7zm11.1 0c0 3.1-2 4.9-4.4 4.9c-2.4 0-4.5-1.8-4.5-4.9c0-3.1 2.1-4.8 4.5-4.8c2.4 0 4.4 1.8 4.4 4.8zm6.4 3c0 2.7 1.3 3.6 3.7 3.6h1.9v-1.8h-1.6c-1.3 0-1.8-0.5-1.8-1.8v-7.7h3.4v-1.8h-3.4v-3.3h-2.2v3.3h-1.7v1.8h1.7zm6.4 7h1.4l2.7-6.5h-2.4zm15.6-3.4h2.3l3.2-10.4l3.1 10.4h2.3l4.1-13.1h-2.2l-2.9 11l-3.2-11h-2.3l-3.2 11l-3.1-11h-2.2zm17.1 0h2.2v-7.3c0-2.8 1.5-4.2 3.8-4.2c2.2 0 3.6 1.3 3.6 4v7.5h2.2v-7.8c0-3.8-2.3-5.6-5.2-5.6c-1.9 0-3.5 0.7-4.4 2.1v-6.5h-2.2zm21-11.5c2.2 0 4.2 1.4 4.1 4h-8.3c0.3-2.6 2-4 4.2-4zm6.1 7.4h-2.3c-0.5 1.5-1.8 2.5-3.7 2.5c-2.3 0-4.1-1.5-4.3-4.2h10.5c0.1-0.4 0.1-0.8 0.1-1.3c0-3.6-2.5-6.3-6.3-6.3c-3.9 0-6.5 2.7-6.5 6.8c0 4.2 2.7 6.8 6.5 6.8c3.2 0 5.3-1.9 6-4.3zm12.8 4.1h2.1v-7.7c0-3.8-2.3-5.7-5.3-5.7c-1.8 0-3.4 0.8-4.3 2.1v-1.8h-2.1v13.1h2.1v-7.3c0-2.8 1.6-4.2 3.8-4.2c2.2 0 3.7 1.4 3.7 4.1zm3.8 3.4h1.5l2.7-6.5h-2.4zm12.2-10c0 4.1 2.7 6.8 6.2 6.8c2.5 0 4.2-1.2 5-2.6v2.4h2.2v-13.1h-2.2v2.4c-0.8-1.4-2.5-2.7-4.9-2.7c-3.6 0-6.3 2.7-6.3 6.8zm11.2 0c0 3.1-2.1 4.9-4.5 4.9c-2.4 0-4.4-1.8-4.4-4.9c0-3.1 2-4.9 4.4-4.9c2.4 0 4.5 1.9 4.5 4.9zm15.5 6.6h2.1v-7.7c0-3.8-2.3-5.7-5.3-5.7c-1.8 0-3.4 0.8-4.3 2.1v-1.8h-2.1v13.1h2.1v-7.3c0-2.8 1.6-4.2 3.8-4.2c2.2 0 3.7 1.4 3.7 4.1zm4.9-6.7c0 4.1 2.7 6.9 6.2 6.9c2.4 0 4.1-1.2 4.9-2.7v2.5h2.2v-17.8h-2.2v7c-0.9-1.5-2.8-2.6-4.8-2.6c-3.6 0-6.3 2.6-6.3 6.7zm11.1 0.1c0 3.1-2 4.9-4.4 4.9c-2.4 0-4.5-1.9-4.5-5c0-3.1 2.1-4.8 4.5-4.8c2.4 0 4.4 1.8 4.4 4.9zm14.9 6.6h2.3l3.1-10.5l3.2 10.5h2.3l4.1-13.2h-2.2l-3 11.1l-3.2-11.1h-2.2l-3.3 11.1l-3-11.1h-2.2zm17.1 0h2.2v-7.3c0-2.8 1.5-4.2 3.8-4.2c2.2 0 3.6 1.4 3.6 4.1v7.4h2.2v-7.7c0-3.8-2.3-5.7-5.3-5.7c-1.8 0-3.4 0.8-4.3 2.2v-6.5h-2.2zm20.4-2.5l-4.2-10.7h-2.4l5.3 13l-2.6 6.3h2.3l7.9-19.3h-2.3z"/><rect class="H" x="1444.5" y="676" width="10" height="33" rx="8"></rect><rect class="H" x="1464.5" y="676" width="10" height="33" rx="8"></rect><rect class="H" x="1424.5" y="676" width="10" height="33" rx="8"></rect><rect class="H" x="1444.5" y="756" width="10" height="33" rx="8"></rect><rect class="H" x="1464.5" y="756" width="10" height="33" rx="8"></rect><rect class="H" x="1424.5" y="756" width="10" height="33" rx="8"></rect><rect class="H" x="1393" y="728.5" width="33" height="10" rx="8"></rect><rect class="H" x="1393" y="748.5" width="33" height="10" rx="8"></rect><rect class="H" x="1393" y="708.5" width="33" height="10" rx="8"></rect><rect class="H" x="1473" y="728.5" width="33" height="10" rx="8"></rect><rect class="H" x="1473" y="748.5" width="33" height="10" rx="8"></rect><rect class="H" x="1473" y="708.5" width="33" height="10" rx="8"></rect><rect class="I" x="1411.5" y="695" width="77" height="77" rx="8"></rect><rect class="J" x="1430.5" y="714" width="38" height="38" rx="8"></rect></svg>