<?xml version="1.0" encoding="utf-8" standalone="no"?>
<!DOCTYPE svg PUBLIC "-//W3C//DTD SVG 1.1//EN"
    "http://www.w3.org/Graphics/SVG/1.1/DTD/svg11.dtd">
<svg height="345.6pt"
     version="1.1"
     viewBox="0 0 460.8 345.6"
     width="460.8pt"
     xmlns="http://www.w3.org/2000/svg"
     xmlns:xlink="http://www.w3.org/1999/xlink">
    <metadata>
        <rdf:RDF xmlns:cc="http://creativecommons.org/ns#"
                 xmlns:dc="http://purl.org/dc/elements/1.1/"
                 xmlns:rdf="http://www.w3.org/1999/02/22-rdf-syntax-ns#">
            <cc:Work>
                <dc:type rdf:resource="http://purl.org/dc/dcmitype/StillImage" />
                <dc:date>2022-01-12T21:25:40.821980</dc:date>
                <dc:format>image/svg+xml</dc:format>
                <dc:creator>
                    <cc:Agent>
                        <dc:title>Matplotlib v3.4.3, https://matplotlib.org/
                        </dc:title>
                    </cc:Agent>
                </dc:creator>
            </cc:Work>
        </rdf:RDF>
    </metadata>
    <defs>
        <style type="text/css">*{stroke-linecap:butt;stroke-linejoin:round;}
        </style>
    </defs>
    <g id="figure_1">
        <g id="patch_1">
            <path d="M 0 345.6
L 460.8 345.6 
L 460.8 0 
L 0 0 
z
" style="fill:#ffffff;" />
        </g>
        <g id="axes_1">
            <g id="patch_2">
                <path d="M 57.6 307.584
L 414.72 307.584 
L 414.72 41.472 
L 57.6 41.472 
z
" style="fill:#ffffff;" />
            </g>
            <g id="matplotlib.axis_1">
                <g id="xtick_1">
                    <g id="line2d_1">
                        <defs>
                            <path d="M 0 0
L 0 3.5 
" id="m165362c8c5" style="stroke:#000000;stroke-width:0.8;" />
                        </defs>
                        <g>
                            <use style="stroke:#000000;stroke-width:0.8;"
                                 x="73.832727"
                                 xlink:href="#m165362c8c5"
                                 y="307.584" />
                        </g>
                    </g>
                </g>
                <g id="xtick_2">
                    <g id="line2d_2">
                        <g>
                            <use style="stroke:#000000;stroke-width:0.8;"
                                 x="114.414545"
                                 xlink:href="#m165362c8c5"
                                 y="307.584" />
                        </g>
                    </g>
                </g>
                <g id="xtick_3">
                    <g id="line2d_3">
                        <g>
                            <use style="stroke:#000000;stroke-width:0.8;"
                                 x="154.996364"
                                 xlink:href="#m165362c8c5"
                                 y="307.584" />
                        </g>
                    </g>
                </g>
                <g id="xtick_4">
                    <g id="line2d_4">
                        <g>
                            <use style="stroke:#000000;stroke-width:0.8;"
                                 x="195.578182"
                                 xlink:href="#m165362c8c5"
                                 y="307.584" />
                        </g>
                    </g>
                </g>
                <g id="xtick_5">
                    <g id="line2d_5">
                        <g>
                            <use style="stroke:#000000;stroke-width:0.8;"
                                 x="236.16"
                                 xlink:href="#m165362c8c5"
                                 y="307.584" />
                        </g>
                    </g>
                </g>
                <g id="xtick_6">
                    <g id="line2d_6">
                        <g>
                            <use style="stroke:#000000;stroke-width:0.8;"
                                 x="276.741818"
                                 xlink:href="#m165362c8c5"
                                 y="307.584" />
                        </g>
                    </g>
                </g>
                <g id="xtick_7">
                    <g id="line2d_7">
                        <g>
                            <use style="stroke:#000000;stroke-width:0.8;"
                                 x="317.323636"
                                 xlink:href="#m165362c8c5"
                                 y="307.584" />
                        </g>
                    </g>
                </g>
                <g id="xtick_8">
                    <g id="line2d_8">
                        <g>
                            <use style="stroke:#000000;stroke-width:0.8;"
                                 x="357.905455"
                                 xlink:href="#m165362c8c5"
                                 y="307.584" />
                        </g>
                    </g>
                </g>
                <g id="xtick_9">
                    <g id="line2d_9">
                        <g>
                            <use style="stroke:#000000;stroke-width:0.8;"
                                 x="398.487273"
                                 xlink:href="#m165362c8c5"
                                 y="307.584" />
                        </g>
                    </g>
                </g>
            </g>
            <g id="matplotlib.axis_2">
                <g id="ytick_1">
                    <g id="line2d_10">
                        <defs>
                            <path d="M 0 0
L -3.5 0 
" id="m597e01f3bc" style="stroke:#000000;stroke-width:0.8;" />
                        </defs>
                        <g>
                            <use style="stroke:#000000;stroke-width:0.8;"
                                 x="57.6"
                                 xlink:href="#m597e01f3bc"
                                 y="295.488" />
                        </g>
                    </g>
                </g>
                <g id="ytick_2">
                    <g id="line2d_11">
                        <g>
                            <use style="stroke:#000000;stroke-width:0.8;"
                                 x="57.6"
                                 xlink:href="#m597e01f3bc"
                                 y="265.248" />
                        </g>
                    </g>
                </g>
                <g id="ytick_3">
                    <g id="line2d_12">
                        <g>
                            <use style="stroke:#000000;stroke-width:0.8;"
                                 x="57.6"
                                 xlink:href="#m597e01f3bc"
                                 y="235.008" />
                        </g>
                    </g>
                </g>
                <g id="ytick_4">
                    <g id="line2d_13">
                        <g>
                            <use style="stroke:#000000;stroke-width:0.8;"
                                 x="57.6"
                                 xlink:href="#m597e01f3bc"
                                 y="204.768" />
                        </g>
                    </g>
                </g>
                <g id="ytick_5">
                    <g id="line2d_14">
                        <g>
                            <use style="stroke:#000000;stroke-width:0.8;"
                                 x="57.6"
                                 xlink:href="#m597e01f3bc"
                                 y="174.528" />
                        </g>
                    </g>
                </g>
                <g id="ytick_6">
                    <g id="line2d_15">
                        <g>
                            <use style="stroke:#000000;stroke-width:0.8;"
                                 x="57.6"
                                 xlink:href="#m597e01f3bc"
                                 y="144.288" />
                        </g>
                    </g>
                </g>
                <g id="ytick_7">
                    <g id="line2d_16">
                        <g>
                            <use style="stroke:#000000;stroke-width:0.8;"
                                 x="57.6"
                                 xlink:href="#m597e01f3bc"
                                 y="114.048" />
                        </g>
                    </g>
                </g>
                <g id="ytick_8">
                    <g id="line2d_17">
                        <g>
                            <use style="stroke:#000000;stroke-width:0.8;"
                                 x="57.6"
                                 xlink:href="#m597e01f3bc"
                                 y="83.808" />
                        </g>
                    </g>
                </g>
                <g id="ytick_9">
                    <g id="line2d_18">
                        <g>
                            <use style="stroke:#000000;stroke-width:0.8;"
                                 x="57.6"
                                 xlink:href="#m597e01f3bc"
                                 y="53.568" />
                        </g>
                    </g>
                </g>
            </g>
            <g id="line2d_19">
                <path clip-path="url(#p4b30c54073)" d="M 73.832727 295.488
L 236.16 295.488 
L 236.16 174.528 
L 73.832727 295.488 
" style="fill:none;stroke:#1f77b4;stroke-linecap:square;stroke-width:1.5;" />
            </g>
            <g id="line2d_20">
                <path clip-path="url(#p4b30c54073)" d="M 73.832727 295.488
L 398.487273 295.488 
L 398.487273 53.568 
L 73.832727 295.488 
" style="fill:none;stroke:#ff7f0e;stroke-linecap:square;stroke-width:1.5;" />
            </g>
            <g id="patch_3">
                <path d="M 57.6 307.584
L 57.6 41.472 
"
                      style="fill:none;stroke:#000000;stroke-linecap:square;stroke-linejoin:miter;stroke-width:0.8;" />
            </g>
            <g id="patch_4">
                <path d="M 414.72 307.584
L 414.72 41.472 
"
                      style="fill:none;stroke:#000000;stroke-linecap:square;stroke-linejoin:miter;stroke-width:0.8;" />
            </g>
            <g id="patch_5">
                <path d="M 57.6 307.584
L 414.72 307.584 
"
                      style="fill:none;stroke:#000000;stroke-linecap:square;stroke-linejoin:miter;stroke-width:0.8;" />
            </g>
            <g id="patch_6">
                <path d="M 57.6 41.472
L 414.72 41.472 
"
                      style="fill:none;stroke:#000000;stroke-linecap:square;stroke-linejoin:miter;stroke-width:0.8;" />
            </g>
            <g id="text_1">
                <!-- (x, y) -->
                <g transform="translate(60.83429 304.295375)scale(0.1 -0.1)">
                    <defs>
                        <path d="M 1984 4856
Q 1566 4138 1362 3434 
Q 1159 2731 1159 2009 
Q 1159 1288 1364 580 
Q 1569 -128 1984 -844 
L 1484 -844 
Q 1016 -109 783 600 
Q 550 1309 550 2009 
Q 550 2706 781 3412 
Q 1013 4119 1484 4856 
L 1984 4856 
z
" id="DejaVuSans-28" transform="scale(0.015625)" />
                        <path d="M 3513 3500
L 2247 1797 
L 3578 0 
L 2900 0 
L 1881 1375 
L 863 0 
L 184 0 
L 1544 1831 
L 300 3500 
L 978 3500 
L 1906 2253 
L 2834 3500 
L 3513 3500 
z
" id="DejaVuSans-78" transform="scale(0.015625)" />
                        <path d="M 750 794
L 1409 794 
L 1409 256 
L 897 -744 
L 494 -744 
L 750 256 
L 750 794 
z
" id="DejaVuSans-2c" transform="scale(0.015625)" />
                        <path id="DejaVuSans-20" transform="scale(0.015625)" />
                        <path d="M 2059 -325
Q 1816 -950 1584 -1140 
Q 1353 -1331 966 -1331 
L 506 -1331 
L 506 -850 
L 844 -850 
Q 1081 -850 1212 -737 
Q 1344 -625 1503 -206 
L 1606 56 
L 191 3500 
L 800 3500 
L 1894 763 
L 2988 3500 
L 3597 3500 
L 2059 -325 
z
" id="DejaVuSans-79" transform="scale(0.015625)" />
                        <path d="M 513 4856
L 1013 4856 
Q 1481 4119 1714 3412 
Q 1947 2706 1947 2009 
Q 1947 1309 1714 600 
Q 1481 -109 1013 -844 
L 513 -844 
Q 928 -128 1133 580 
Q 1338 1288 1338 2009 
Q 1338 2731 1133 3434 
Q 928 4138 513 4856 
z
" id="DejaVuSans-29" transform="scale(0.015625)" />
                    </defs>
                    <use xlink:href="#DejaVuSans-28" />
                    <use x="39.013672" xlink:href="#DejaVuSans-78" />
                    <use x="98.193359" xlink:href="#DejaVuSans-2c" />
                    <use x="129.980469" xlink:href="#DejaVuSans-20" />
                    <use x="161.767578" xlink:href="#DejaVuSans-79" />
                    <use x="220.947266" xlink:href="#DejaVuSans-29" />
                </g>
            </g>
            <g id="text_2">
                <!-- nextCP = (nextX, nextY) -->
                <g transform="translate(337.822429 50.279375)scale(0.1 -0.1)">
                    <defs>
                        <path d="M 3513 2113
L 3513 0 
L 2938 0 
L 2938 2094 
Q 2938 2591 2744 2837 
Q 2550 3084 2163 3084 
Q 1697 3084 1428 2787 
Q 1159 2491 1159 1978 
L 1159 0 
L 581 0 
L 581 3500 
L 1159 3500 
L 1159 2956 
Q 1366 3272 1645 3428 
Q 1925 3584 2291 3584 
Q 2894 3584 3203 3211 
Q 3513 2838 3513 2113 
z
" id="DejaVuSans-6e" transform="scale(0.015625)" />
                        <path d="M 3597 1894
L 3597 1613 
L 953 1613 
Q 991 1019 1311 708 
Q 1631 397 2203 397 
Q 2534 397 2845 478 
Q 3156 559 3463 722 
L 3463 178 
Q 3153 47 2828 -22 
Q 2503 -91 2169 -91 
Q 1331 -91 842 396 
Q 353 884 353 1716 
Q 353 2575 817 3079 
Q 1281 3584 2069 3584 
Q 2775 3584 3186 3129 
Q 3597 2675 3597 1894 
z
M 3022 2063 
Q 3016 2534 2758 2815 
Q 2500 3097 2075 3097 
Q 1594 3097 1305 2825 
Q 1016 2553 972 2059 
L 3022 2063 
z
" id="DejaVuSans-65" transform="scale(0.015625)" />
                        <path d="M 1172 4494
L 1172 3500 
L 2356 3500 
L 2356 3053 
L 1172 3053 
L 1172 1153 
Q 1172 725 1289 603 
Q 1406 481 1766 481 
L 2356 481 
L 2356 0 
L 1766 0 
Q 1100 0 847 248 
Q 594 497 594 1153 
L 594 3053 
L 172 3053 
L 172 3500 
L 594 3500 
L 594 4494 
L 1172 4494 
z
" id="DejaVuSans-74" transform="scale(0.015625)" />
                        <path d="M 4122 4306
L 4122 3641 
Q 3803 3938 3442 4084 
Q 3081 4231 2675 4231 
Q 1875 4231 1450 3742 
Q 1025 3253 1025 2328 
Q 1025 1406 1450 917 
Q 1875 428 2675 428 
Q 3081 428 3442 575 
Q 3803 722 4122 1019 
L 4122 359 
Q 3791 134 3420 21 
Q 3050 -91 2638 -91 
Q 1578 -91 968 557 
Q 359 1206 359 2328 
Q 359 3453 968 4101 
Q 1578 4750 2638 4750 
Q 3056 4750 3426 4639 
Q 3797 4528 4122 4306 
z
" id="DejaVuSans-43" transform="scale(0.015625)" />
                        <path d="M 1259 4147
L 1259 2394 
L 2053 2394 
Q 2494 2394 2734 2622 
Q 2975 2850 2975 3272 
Q 2975 3691 2734 3919 
Q 2494 4147 2053 4147 
L 1259 4147 
z
M 628 4666 
L 2053 4666 
Q 2838 4666 3239 4311 
Q 3641 3956 3641 3272 
Q 3641 2581 3239 2228 
Q 2838 1875 2053 1875 
L 1259 1875 
L 1259 0 
L 628 0 
L 628 4666 
z
" id="DejaVuSans-50" transform="scale(0.015625)" />
                        <path d="M 678 2906
L 4684 2906 
L 4684 2381 
L 678 2381 
L 678 2906 
z
M 678 1631 
L 4684 1631 
L 4684 1100 
L 678 1100 
L 678 1631 
z
" id="DejaVuSans-3d" transform="scale(0.015625)" />
                        <path d="M 403 4666
L 1081 4666 
L 2241 2931 
L 3406 4666 
L 4084 4666 
L 2584 2425 
L 4184 0 
L 3506 0 
L 2194 1984 
L 872 0 
L 191 0 
L 1856 2491 
L 403 4666 
z
" id="DejaVuSans-58" transform="scale(0.015625)" />
                        <path d="M -13 4666
L 666 4666 
L 1959 2747 
L 3244 4666 
L 3922 4666 
L 2272 2222 
L 2272 0 
L 1638 0 
L 1638 2222 
L -13 4666 
z
" id="DejaVuSans-59" transform="scale(0.015625)" />
                    </defs>
                    <use xlink:href="#DejaVuSans-6e" />
                    <use x="63.378906" xlink:href="#DejaVuSans-65" />
                    <use x="123.152344" xlink:href="#DejaVuSans-78" />
                    <use x="182.332031" xlink:href="#DejaVuSans-74" />
                    <use x="221.541016" xlink:href="#DejaVuSans-43" />
                    <use x="291.365234" xlink:href="#DejaVuSans-50" />
                    <use x="351.667969" xlink:href="#DejaVuSans-20" />
                    <use x="383.455078" xlink:href="#DejaVuSans-3d" />
                    <use x="467.244141" xlink:href="#DejaVuSans-20" />
                    <use x="499.03125" xlink:href="#DejaVuSans-28" />
                    <use x="538.044922" xlink:href="#DejaVuSans-6e" />
                    <use x="601.423828" xlink:href="#DejaVuSans-65" />
                    <use x="661.197266" xlink:href="#DejaVuSans-78" />
                    <use x="720.376953" xlink:href="#DejaVuSans-74" />
                    <use x="759.585938" xlink:href="#DejaVuSans-58" />
                    <use x="828.091797" xlink:href="#DejaVuSans-2c" />
                    <use x="859.878906" xlink:href="#DejaVuSans-20" />
                    <use x="891.666016" xlink:href="#DejaVuSans-6e" />
                    <use x="955.044922" xlink:href="#DejaVuSans-65" />
                    <use x="1014.818359" xlink:href="#DejaVuSans-78" />
                    <use x="1073.998047" xlink:href="#DejaVuSans-74" />
                    <use x="1113.207031" xlink:href="#DejaVuSans-59" />
                    <use x="1174.291016" xlink:href="#DejaVuSans-29" />
                </g>
            </g>
            <g id="text_3">
                <!-- r -->
                <g transform="translate(152.940895 225.671375)scale(0.1 -0.1)">
                    <defs>
                        <path d="M 2631 2963
Q 2534 3019 2420 3045 
Q 2306 3072 2169 3072 
Q 1681 3072 1420 2755 
Q 1159 2438 1159 1844 
L 1159 0 
L 581 0 
L 581 3500 
L 1159 3500 
L 1159 2956 
Q 1341 3275 1631 3429 
Q 1922 3584 2338 3584 
Q 2397 3584 2469 3576 
Q 2541 3569 2628 3553 
L 2631 2963 
z
" id="DejaVuSans-72" transform="scale(0.015625)" />
                    </defs>
                    <use xlink:href="#DejaVuSans-72" />
                </g>
            </g>
            <g id="text_4">
                <!-- hyp -->
                <g transform="translate(226.857656 153.095375)scale(0.1 -0.1)">
                    <defs>
                        <path d="M 3513 2113
L 3513 0 
L 2938 0 
L 2938 2094 
Q 2938 2591 2744 2837 
Q 2550 3084 2163 3084 
Q 1697 3084 1428 2787 
Q 1159 2491 1159 1978 
L 1159 0 
L 581 0 
L 581 4863 
L 1159 4863 
L 1159 2956 
Q 1366 3272 1645 3428 
Q 1925 3584 2291 3584 
Q 2894 3584 3203 3211 
Q 3513 2838 3513 2113 
z
" id="DejaVuSans-68" transform="scale(0.015625)" />
                        <path d="M 1159 525
L 1159 -1331 
L 581 -1331 
L 581 3500 
L 1159 3500 
L 1159 2969 
Q 1341 3281 1617 3432 
Q 1894 3584 2278 3584 
Q 2916 3584 3314 3078 
Q 3713 2572 3713 1747 
Q 3713 922 3314 415 
Q 2916 -91 2278 -91 
Q 1894 -91 1617 61 
Q 1341 213 1159 525 
z
M 3116 1747 
Q 3116 2381 2855 2742 
Q 2594 3103 2138 3103 
Q 1681 3103 1420 2742 
Q 1159 2381 1159 1747 
Q 1159 1113 1420 752 
Q 1681 391 2138 391 
Q 2594 391 2855 752 
Q 3116 1113 3116 1747 
z
" id="DejaVuSans-70" transform="scale(0.015625)" />
                    </defs>
                    <use xlink:href="#DejaVuSans-68" />
                    <use x="63.378906" xlink:href="#DejaVuSans-79" />
                    <use x="122.558594" xlink:href="#DejaVuSans-70" />
                </g>
            </g>
            <g id="text_5">
                <!-- triangleX -->
                <g transform="translate(213.457656 304.295375)scale(0.1 -0.1)">
                    <defs>
                        <path d="M 603 3500
L 1178 3500 
L 1178 0 
L 603 0 
L 603 3500 
z
M 603 4863 
L 1178 4863 
L 1178 4134 
L 603 4134 
L 603 4863 
z
" id="DejaVuSans-69" transform="scale(0.015625)" />
                        <path d="M 2194 1759
Q 1497 1759 1228 1600 
Q 959 1441 959 1056 
Q 959 750 1161 570 
Q 1363 391 1709 391 
Q 2188 391 2477 730 
Q 2766 1069 2766 1631 
L 2766 1759 
L 2194 1759 
z
M 3341 1997 
L 3341 0 
L 2766 0 
L 2766 531 
Q 2569 213 2275 61 
Q 1981 -91 1556 -91 
Q 1019 -91 701 211 
Q 384 513 384 1019 
Q 384 1609 779 1909 
Q 1175 2209 1959 2209 
L 2766 2209 
L 2766 2266 
Q 2766 2663 2505 2880 
Q 2244 3097 1772 3097 
Q 1472 3097 1187 3025 
Q 903 2953 641 2809 
L 641 3341 
Q 956 3463 1253 3523 
Q 1550 3584 1831 3584 
Q 2591 3584 2966 3190 
Q 3341 2797 3341 1997 
z
" id="DejaVuSans-61" transform="scale(0.015625)" />
                        <path d="M 2906 1791
Q 2906 2416 2648 2759 
Q 2391 3103 1925 3103 
Q 1463 3103 1205 2759 
Q 947 2416 947 1791 
Q 947 1169 1205 825 
Q 1463 481 1925 481 
Q 2391 481 2648 825 
Q 2906 1169 2906 1791 
z
M 3481 434 
Q 3481 -459 3084 -895 
Q 2688 -1331 1869 -1331 
Q 1566 -1331 1297 -1286 
Q 1028 -1241 775 -1147 
L 775 -588 
Q 1028 -725 1275 -790 
Q 1522 -856 1778 -856 
Q 2344 -856 2625 -561 
Q 2906 -266 2906 331 
L 2906 616 
Q 2728 306 2450 153 
Q 2172 0 1784 0 
Q 1141 0 747 490 
Q 353 981 353 1791 
Q 353 2603 747 3093 
Q 1141 3584 1784 3584 
Q 2172 3584 2450 3431 
Q 2728 3278 2906 2969 
L 2906 3500 
L 3481 3500 
L 3481 434 
z
" id="DejaVuSans-67" transform="scale(0.015625)" />
                        <path d="M 603 4863
L 1178 4863 
L 1178 0 
L 603 0 
L 603 4863 
z
" id="DejaVuSans-6c" transform="scale(0.015625)" />
                    </defs>
                    <use xlink:href="#DejaVuSans-74" />
                    <use x="39.208984" xlink:href="#DejaVuSans-72" />
                    <use x="80.322266" xlink:href="#DejaVuSans-69" />
                    <use x="108.105469" xlink:href="#DejaVuSans-61" />
                    <use x="169.384766" xlink:href="#DejaVuSans-6e" />
                    <use x="232.763672" xlink:href="#DejaVuSans-67" />
                    <use x="296.240234" xlink:href="#DejaVuSans-6c" />
                    <use x="324.023438" xlink:href="#DejaVuSans-65" />
                    <use x="385.546875" xlink:href="#DejaVuSans-58" />
                </g>
            </g>
            <g id="text_6">
                <!-- triangleY -->
                <g transform="translate(400.505114 177.287375)scale(0.1 -0.1)">
                    <use xlink:href="#DejaVuSans-74" />
                    <use x="39.208984" xlink:href="#DejaVuSans-72" />
                    <use x="80.322266" xlink:href="#DejaVuSans-69" />
                    <use x="108.105469" xlink:href="#DejaVuSans-61" />
                    <use x="169.384766" xlink:href="#DejaVuSans-6e" />
                    <use x="232.763672" xlink:href="#DejaVuSans-67" />
                    <use x="296.240234" xlink:href="#DejaVuSans-6c" />
                    <use x="324.023438" xlink:href="#DejaVuSans-65" />
                    <use x="385.546875" xlink:href="#DejaVuSans-59" />
                </g>
            </g>
            <g id="text_7">
                <!-- (tangentX, tangentY) -->
                <g transform="translate(240.270639 177.287375)scale(0.1 -0.1)">
                    <use xlink:href="#DejaVuSans-28" />
                    <use x="39.013672" xlink:href="#DejaVuSans-74" />
                    <use x="78.222656" xlink:href="#DejaVuSans-61" />
                    <use x="139.501953" xlink:href="#DejaVuSans-6e" />
                    <use x="202.880859" xlink:href="#DejaVuSans-67" />
                    <use x="266.357422" xlink:href="#DejaVuSans-65" />
                    <use x="327.880859" xlink:href="#DejaVuSans-6e" />
                    <use x="391.259766" xlink:href="#DejaVuSans-74" />
                    <use x="430.46875" xlink:href="#DejaVuSans-58" />
                    <use x="498.974609" xlink:href="#DejaVuSans-2c" />
                    <use x="530.761719" xlink:href="#DejaVuSans-20" />
                    <use x="562.548828" xlink:href="#DejaVuSans-74" />
                    <use x="601.757812" xlink:href="#DejaVuSans-61" />
                    <use x="663.037109" xlink:href="#DejaVuSans-6e" />
                    <use x="726.416016" xlink:href="#DejaVuSans-67" />
                    <use x="789.892578" xlink:href="#DejaVuSans-65" />
                    <use x="851.416016" xlink:href="#DejaVuSans-6e" />
                    <use x="914.794922" xlink:href="#DejaVuSans-74" />
                    <use x="954.003906" xlink:href="#DejaVuSans-59" />
                    <use x="1015.087891" xlink:href="#DejaVuSans-29" />
                </g>
            </g>
        </g>
    </g>
    <defs>
        <clipPath id="p4b30c54073">
            <rect height="266.112" width="357.12" x="57.6" y="41.472" />
        </clipPath>
    </defs>
</svg>
