<svg version="1.2" xmlns="http://www.w3.org/2000/svg" viewBox="0 0 2400 2400" width="512" height="512"><style>.a{fill:#212121}.b{fill:#fff}.c{fill:#9ac5db}.d{fill:#455a64}.e{fill:#2196f3}</style><path class="a" d="m1200 1627c-236.1 0-427-190.9-427-427 0-236.1 190.9-427 427-427 236.1 0 427 190.9 427 427 0 236.1-190.9 427-427 427z"/><path fill-rule="evenodd" class="b" d="m1200 2400c-663.6 0-1200-536.4-1200-1200 0-444.9 241.1-832.6 599.9-1039.8l386.7 669.7c-127.8 73.8-213.6 211.8-213.6 370.1 0 236.1 190.9 427 427 427 77.9 0 150.9-20.8 213.8-57.1l386.7 669.7c-176.6 102-381.6 160.4-600.5 160.4zm1025.3-1824.6q14.9 24.5 28.6 49.6z"/><path fill-rule="evenodd" class="c" d="m1200 0c663.6 0 1200 536.4 1200 1200 0 444.9-241.1 832.6-599.9 1039.8l-386.7-669.7c127.8-73.8 213.6-211.8 213.6-370.1 0-236.1-190.9-427-427-427-77.9 0-150.9 20.8-213.8 57.1l-386.7-669.7c176.6-102 381.6-160.4 600.5-160.4zm-1025.3 1824.6q-14.9-24.5-28.6-49.6z"/><path class="a" d="m496.3 430.7l389.3-224.8 1026.5 1778-389.3 224.8z"/><path class="a" d="m1040.8 1041.1l317.9 317.8-763.6 763.7-317.9-317.9z"/><path fill-rule="evenodd" class="a" d="m160.8 1800q-0.1-0.2-0.2-0.3l0.3 0.6q0-0.1-0.1-0.3zm2078.4-1200c293.4 508.1 173.9 1139.7-254.8 1508.6l-177.5-307.4c265-266.7 329.9-686.7 132.7-1028.2-197.2-341.5-593.3-495.3-956.8-399.2l-177.5-307.4c533.9-186.8 1140.6 25.5 1433.9 533.6z"/><path fill-rule="evenodd" class="d" d="m160.8 1800c-293.4-508.1-173.9-1139.7 254.8-1508.6l177.5 307.4c-265 266.7-329.9 686.7-132.7 1028.2 197.2 341.5 593.3 495.3 956.8 399.2l177.5 307.4c-533.9 186.8-1140.6-25.5-1433.9-533.6zm439.2-1639.2q0.1-0.1 0.2-0.1l-0.4 0.2q0.1-0.1 0.2-0.1z"/><path fill-rule="evenodd" class="e" d="m600 160.8q0.1-0.1 0.1-0.1l-0.2 0.2q0-0.1 0.1-0.1zm1200 2078.4c-66.6 38.5-135.4 69.9-205.3 94.4l-177.5-307.4c71.8-18.9 142.3-47.7 209.8-86.6 67.5-39 127.6-85.7 179.9-138.4l177.5 307.4c-56.3 48.3-117.8 92.2-184.4 130.6z"/><path fill-rule="evenodd" class="e" d="m2239.2 600q0 0 0.1 0.1l-0.1-0.2q0 0.1 0 0.1zm-1639.2-439.2c66.6-38.5 135.4-69.9 205.3-94.4l177.5 307.4c-71.8 18.9-142.3 47.7-209.8 86.6-67.5 39-127.6 85.7-179.9 138.4l-177.5-307.4c56.3-48.3 117.8-92.2 184.4-130.6z"/><path fill-rule="evenodd" class="e" d="m351.5 2048.5c-54.4-54.4-102.5-112.6-144.3-173.9l250.9-250.9c37 64.4 82.9 125.1 138 180.2 55.1 55.1 115.8 101 180.2 138l-250.9 250.9c-61.3-41.8-119.5-89.9-173.9-144.3z"/></svg>